<?xml version="1.0" encoding="UTF-8" standalone="no"?>
<!-- Created with Inkscape (http://www.inkscape.org/) -->

<svg
   width="90mm"
   height="50mm"
   viewBox="0 0 90 50"
   version="1.1"
   id="svg12887"
   inkscape:version="1.2.1 (9c6d41e410, 2022-07-14)"
   sodipodi:docname="hajzmand_vizitka_skolni1.svg"
   inkscape:export-filename="babykovab_vizitka_skolni.png"
   inkscape:export-xdpi="96"
   inkscape:export-ydpi="96"
   xmlns:inkscape="http://www.inkscape.org/namespaces/inkscape"
   xmlns:sodipodi="http://sodipodi.sourceforge.net/DTD/sodipodi-0.dtd"
   xmlns="http://www.w3.org/2000/svg"
   xmlns:svg="http://www.w3.org/2000/svg">
  <sodipodi:namedview
     id="namedview12889"
     pagecolor="#ffffff"
     bordercolor="#000000"
     borderopacity="0.25"
     inkscape:showpageshadow="2"
     inkscape:pageopacity="0.0"
     inkscape:pagecheckerboard="0"
     inkscape:deskcolor="#d1d1d1"
     inkscape:document-units="mm"
     showgrid="false"
     inkscape:zoom="1.4912879"
     inkscape:cx="274.25959"
     inkscape:cy="101.25476"
     inkscape:window-width="1920"
     inkscape:window-height="1017"
     inkscape:window-x="-8"
     inkscape:window-y="-8"
     inkscape:window-maximized="1"
     inkscape:current-layer="g13164" />
  <defs
     id="defs12884" />
  <g
     inkscape:label="Vrstva 1"
     inkscape:groupmode="layer"
     id="layer1">
    <g
       id="g13164"
       transform="matrix(0.99863164,0,0,1,-14.531329,-51.290321)">
      <rect
         style="display:inline;fill:#ececec;stroke:none;stroke-width:0.264584"
         id="rect11538"
         width="90"
         height="50"
         x="14.611466"
         y="51.290321" />
      <rect
         style="display:inline;fill:#ececec;stroke:none;stroke-width:0.264584"
         id="rect11540"
         width="90"
         height="50"
         x="14.611466"
         y="51.290321" />
      <rect
         style="fill:#14cb9b;fill-opacity:1;stroke:none;stroke-width:0.312126"
         id="rect11572"
         width="89.993736"
         height="11.03999"
         x="14.582612"
         y="90.242981" />
      <rect
         style="fill:#ffffff;fill-opacity:1;stroke:none;stroke-width:0.218829"
         id="rect11574"
         width="90.123322"
         height="0.68999934"
         x="14.55124"
         y="96.139328" />
      <rect
         style="fill:#14cb9b;fill-opacity:1;stroke:none;stroke-width:0.312126"
         id="rect11576"
         width="89.993736"
         height="11.03999"
         x="14.582612"
         y="90.242981" />
      <rect
         style="fill:#ffffff;fill-opacity:1;stroke:none;stroke-width:0.218829"
         id="rect11578"
         width="90.123322"
         height="0.68999934"
         x="14.55124"
         y="96.139328" />
      <rect
         style="fill:#14cb9b;fill-opacity:1;stroke:none;stroke-width:0.254806"
         id="rect11580"
         width="25.370968"
         height="15.879032"
         x="17.107424"
         y="54.060471" />
      <text
         xml:space="preserve"
         style="font-style:normal;font-variant:normal;font-weight:bold;font-stretch:normal;font-size:6.33758px;font-family:Tahoma;-inkscape-font-specification:'Tahoma, Bold';font-variant-ligatures:normal;font-variant-caps:normal;font-variant-numeric:normal;font-variant-east-asian:normal;display:inline;fill:#ff00ff;stroke:none;stroke-width:0.36563"
         x="47.151855"
         y="59.139454"
         id="text11788"
         inkscape:label="text8602"><tspan
           sodipodi:role="line"
           style="font-style:normal;font-variant:normal;font-weight:bold;font-stretch:normal;font-size:6.33758px;font-family:Tahoma;-inkscape-font-specification:'Tahoma, Bold';font-variant-ligatures:normal;font-variant-caps:normal;font-variant-numeric:normal;font-variant-east-asian:normal;fill:#000000;stroke-width:0.36563"
           x="47.151855"
           y="59.139454"
           id="tspan11786">VOŠ a SPŠE Plzeň</tspan></text>
      <g
         id="g11798"
         transform="translate(9.61155,-103.70975)"
         style="display:inline">
        <text
           xml:space="preserve"
           style="font-style:normal;font-variant:normal;font-weight:bold;font-stretch:normal;font-size:4.96663px;font-family:Tahoma;-inkscape-font-specification:'Tahoma, Bold';font-variant-ligatures:normal;font-variant-caps:normal;font-variant-numeric:normal;font-variant-east-asian:normal;display:inline;fill:#000000;stroke:none;stroke-width:0.367684"
           x="44.426765"
           y="174.00111"
           id="text11792"
           inkscape:label="text8602"><tspan
             sodipodi:role="line"
             id="tspan11790"
             x="44.426765"
             y="174.00111"
             style="stroke-width:0.367684">Daniel Hajžman</tspan></text>
        <text
           xml:space="preserve"
           style="font-style:normal;font-variant:normal;font-weight:normal;font-stretch:normal;font-size:2.64874px;font-family:Century;-inkscape-font-specification:'Century, Normal';font-variant-ligatures:normal;font-variant-caps:normal;font-variant-numeric:normal;font-variant-east-asian:normal;fill:#000000;stroke:none;stroke-width:0.249567"
           x="58.694801"
           y="177.36658"
           id="text11796"
           inkscape:label="text8602"><tspan
             sodipodi:role="line"
             id="tspan11794"
             x="58.694801"
             y="177.36658"
             style="font-style:normal;font-variant:normal;font-weight:normal;font-stretch:normal;font-size:2.39449px;font-family:sans-serif;-inkscape-font-specification:'sans-serif, Normal';font-variant-ligatures:normal;font-variant-caps:normal;font-variant-numeric:normal;font-variant-east-asian:normal;stroke-width:0.249567">student IF1</tspan></text>
      </g>
      <circle
         style="display:inline;fill:#ffffff;stroke:none;stroke-width:0.216428"
         id="circle11800"
         cx="29.956926"
         cy="87.501862"
         r="12.545443" />
      <g
         id="g11804"
         transform="matrix(0.77801242,0,0,0.77801242,0.616,-20.112723)"
         style="display:inline">
        <path
           style="fill:#14cb9b;stroke-width:0.0846667"
           d="m 36.393321,152.42879 c -1.766744,-0.17682 -3.482888,-0.68823 -5.138058,-1.53114 l -0.989392,-0.50386 -0.478561,0.13912 c -0.839354,0.24401 -1.639458,-0.0794 -2.074976,-0.83876 -0.636964,-1.11058 0.0085,-2.49029 1.272654,-2.72048 1.043106,-0.18993 2.116667,0.73728 2.116667,1.82812 v 0.39886 l 0.839028,0.43098 c 2.02458,1.03995 4.347438,1.51258 6.657418,1.35458 6.290223,-0.43025 11.294453,-5.56933 11.612535,-11.92545 0.04551,-0.90946 -0.0734,-2.51786 -0.212937,-2.88012 -0.05263,-0.13664 -0.326064,-0.0797 -3.105711,0.64664 -1.6764,0.43806 -3.14325,0.86573 -3.259666,0.95039 -0.129207,0.094 -0.228159,0.26582 -0.254,0.44114 -0.02328,0.15796 -0.01749,1.98266 0.01288,4.05487 0.03105,2.11875 0.02238,3.89913 -0.01982,4.06804 -0.225392,0.90229 -1.475482,1.11661 -2.014496,0.34536 -0.08548,-0.12232 -1.823142,-3.3085 -3.86146,-7.0804 -2.038317,-3.7719 -3.779281,-6.9723 -3.868809,-7.112 -0.161859,-0.25256 -0.162634,-0.2344 -0.137372,3.21734 0.02339,3.19592 0.01329,3.4982 -0.127253,3.81 -0.201185,0.44632 -0.523138,0.77612 -0.990562,1.0147 -0.426361,0.21763 -7.106663,1.99096 -7.500112,1.99096 -0.532065,0 -0.654537,-0.21568 -0.937477,-1.651 -0.215307,-1.09222 -0.214569,-3.6632 0.0014,-4.826 0.464637,-2.50181 1.639238,-4.92979 3.307782,-6.83739 3.39696,-3.88365 8.85695,-5.57134 13.902137,-4.29716 1.12251,0.2835 2.424778,0.79183 3.32392,1.29747 0.603037,0.33912 0.667265,0.35749 0.901118,0.25777 0.393713,-0.1679 1.179802,-0.14176 1.559317,0.0519 0.572993,0.29232 1.021784,1.00528 1.020344,1.62094 -0.0022,0.93446 -0.917913,1.85019 -1.852371,1.85237 -0.586842,0.001 -1.322516,-0.44208 -1.591992,-0.95964 -0.07662,-0.14715 -0.161546,-0.49615 -0.188733,-0.77555 l -0.04943,-0.508 -0.846667,-0.44031 c -0.94825,-0.49314 -2.327463,-0.96386 -3.471333,-1.18475 -1.067803,-0.2062 -3.440551,-0.20395 -4.484262,0.004 -4.617341,0.92106 -8.17367,4.03388 -9.65013,8.44667 -0.449678,1.34399 -0.590009,2.26782 -0.590057,3.88448 -3.5e-5,1.18256 0.109357,2.30413 0.237204,2.43198 0.06232,0.0623 6.144305,-1.56369 6.347946,-1.69712 0.110689,-0.0725 0.219649,-0.2281 0.242134,-0.34573 0.02248,-0.11763 0.01336,-1.95586 -0.02029,-4.08497 -0.03844,-2.43268 -0.03072,-3.98139 0.02078,-4.16791 0.232266,-0.8412 1.286506,-1.07415 1.886697,-0.41689 0.14045,0.1538 1.964574,3.44194 4.05361,7.30698 2.089036,3.86503 3.834641,7.06543 3.879123,7.112 0.05143,0.0538 0.07063,-1.16373 0.05272,-3.34434 l -0.02815,-3.429 0.23922,-0.48716 c 0.270168,-0.55018 0.686445,-0.88629 1.369447,-1.1057 0.232833,-0.0748 1.907822,-0.52303 3.722199,-0.99607 2.494866,-0.65045 3.349108,-0.84216 3.505018,-0.78657 0.337005,0.12016 0.502561,0.44659 0.702846,1.38584 0.162075,0.76006 0.18957,1.14687 0.18957,2.667 0,1.52651 -0.02703,1.90374 -0.191107,2.667 -0.40856,1.90055 -1.111458,3.57023 -2.192041,5.207 -0.758087,1.14828 -2.537272,2.92669 -3.704485,3.70287 -2.668673,1.77462 -6.087719,2.65178 -9.144001,2.3459 z m -6.700084,-3.13392 c 0.172073,-0.13535 0.223084,-0.25011 0.223084,-0.50185 0,-0.5965 -0.611976,-0.87109 -1.067723,-0.47907 -0.1647,0.14167 -0.230499,0.27843 -0.230499,0.47907 0,0.20064 0.0658,0.33739 0.230499,0.47906 0.284588,0.24479 0.553194,0.25204 0.844639,0.0228 z m 16.863933,-20.691 c 0.392815,-0.39282 0.194183,-1.00707 -0.36029,-1.11417 -0.228942,-0.0442 -0.3139,-0.0104 -0.539071,0.2148 -0.225171,0.22517 -0.259024,0.31013 -0.214804,0.53908 0.107096,0.55447 0.72135,0.7531 1.114165,0.36029 z"
           id="path11802" />
      </g>
      <text
         xml:space="preserve"
         style="font-style:normal;font-variant:normal;font-weight:bold;font-stretch:normal;font-size:1.494px;font-family:Tahoma;-inkscape-font-specification:'Tahoma, Bold';font-variant-ligatures:normal;font-variant-caps:normal;font-variant-numeric:normal;font-variant-east-asian:normal;display:inline;fill:#ff00ff;stroke:none;stroke-width:0.0861918"
         x="47.120514"
         y="85.268822"
         id="text11812"
         inkscape:label="text8602"><tspan
           sodipodi:role="line"
           style="font-style:normal;font-variant:normal;font-weight:bold;font-stretch:normal;font-size:1.41111px;font-family:Tahoma;-inkscape-font-specification:'Tahoma, Bold';font-variant-ligatures:normal;font-variant-caps:normal;font-variant-numeric:normal;font-variant-east-asian:normal;fill:#000000;stroke-width:0.0861918"
           x="47.120514"
           y="85.268822"
           id="tspan11806">Koterovská 85</tspan><tspan
           sodipodi:role="line"
           style="font-style:normal;font-variant:normal;font-weight:bold;font-stretch:normal;font-size:1.41111px;font-family:Tahoma;-inkscape-font-specification:'Tahoma, Bold';font-variant-ligatures:normal;font-variant-caps:normal;font-variant-numeric:normal;font-variant-east-asian:normal;fill:#000000;stroke-width:0.0861918"
           x="47.120514"
           y="87.136322"
           id="tspan11808">326 00 Plzeň</tspan><tspan
           sodipodi:role="line"
           style="font-style:normal;font-variant:normal;font-weight:bold;font-stretch:normal;font-size:1.41111px;font-family:Tahoma;-inkscape-font-specification:'Tahoma, Bold';font-variant-ligatures:normal;font-variant-caps:normal;font-variant-numeric:normal;font-variant-east-asian:normal;fill:#000000;stroke-width:0.0861918"
           x="47.120514"
           y="89.003822"
           id="tspan11810">www.spseplzen.cz</tspan></text>
      <text
         xml:space="preserve"
         style="font-style:normal;font-variant:normal;font-weight:bold;font-stretch:normal;font-size:1.37684px;font-family:Tahoma;-inkscape-font-specification:'Tahoma, Bold';font-variant-ligatures:normal;font-variant-caps:normal;font-variant-numeric:normal;font-variant-east-asian:normal;display:inline;fill:#ff00ff;stroke:none;stroke-width:0.0794329"
         x="78.965134"
         y="87.23188"
         id="text11818"
         inkscape:label="text8602"><tspan
           sodipodi:role="line"
           style="font-style:normal;font-variant:normal;font-weight:bold;font-stretch:normal;font-size:1.41111px;font-family:Tahoma;-inkscape-font-specification:'Tahoma, Bold';font-variant-ligatures:normal;font-variant-caps:normal;font-variant-numeric:normal;font-variant-east-asian:normal;fill:#000000;stroke-width:0.0794329"
           x="78.965134"
           y="87.23188"
           id="tspan11814">            +420 123 456 789</tspan><tspan
           sodipodi:role="line"
           style="font-style:normal;font-variant:normal;font-weight:bold;font-stretch:normal;font-size:1.41111px;font-family:Tahoma;-inkscape-font-specification:'Tahoma, Bold';font-variant-ligatures:normal;font-variant-caps:normal;font-variant-numeric:normal;font-variant-east-asian:normal;fill:#000000;stroke-width:0.0794329"
           x="78.965134"
           y="88.9645"
           id="tspan11816" /></text>
      <text
         xml:space="preserve"
         style="font-style:normal;font-variant:normal;font-weight:bold;font-stretch:normal;font-size:6.33758px;font-family:Tahoma;-inkscape-font-specification:'Tahoma, Bold';font-variant-ligatures:normal;font-variant-caps:normal;font-variant-numeric:normal;font-variant-east-asian:normal;display:inline;fill:#ff00ff;stroke:none;stroke-width:0.36563"
         x="47.151855"
         y="59.139454"
         id="text11822"
         inkscape:label="text8602"><tspan
           sodipodi:role="line"
           style="font-style:normal;font-variant:normal;font-weight:bold;font-stretch:normal;font-size:6.33758px;font-family:Tahoma;-inkscape-font-specification:'Tahoma, Bold';font-variant-ligatures:normal;font-variant-caps:normal;font-variant-numeric:normal;font-variant-east-asian:normal;fill:#000000;stroke-width:0.36563"
           x="47.151855"
           y="59.139454"
           id="tspan11820">VOŠ a SPŠE Plzeň</tspan></text>
      <g
         id="g11832"
         transform="translate(9.61155,-103.70975)"
         style="display:inline">
        <text
           xml:space="preserve"
           style="font-style:normal;font-variant:normal;font-weight:bold;font-stretch:normal;font-size:4.96663px;font-family:Tahoma;-inkscape-font-specification:'Tahoma, Bold';font-variant-ligatures:normal;font-variant-caps:normal;font-variant-numeric:normal;font-variant-east-asian:normal;display:inline;fill:#000000;stroke:none;stroke-width:0.367684"
           x="42.123333"
           y="174.00111"
           id="text11826"
           inkscape:label="text8602"><tspan
             sodipodi:role="line"
             id="tspan11824"
             x="42.123333"
             y="174.00111"
             style="stroke-width:0.367684" /></text>
        <text
           xml:space="preserve"
           style="font-style:normal;font-variant:normal;font-weight:normal;font-stretch:normal;font-size:2.64874px;font-family:Century;-inkscape-font-specification:'Century, Normal';font-variant-ligatures:normal;font-variant-caps:normal;font-variant-numeric:normal;font-variant-east-asian:normal;fill:#000000;stroke:none;stroke-width:0.249567"
           x="58.694801"
           y="177.36658"
           id="text11830"
           inkscape:label="text8602"><tspan
             sodipodi:role="line"
             id="tspan11828"
             x="58.694801"
             y="177.36658"
             style="font-style:normal;font-variant:normal;font-weight:normal;font-stretch:normal;font-size:2.39449px;font-family:sans-serif;-inkscape-font-specification:'sans-serif, Normal';font-variant-ligatures:normal;font-variant-caps:normal;font-variant-numeric:normal;font-variant-east-asian:normal;stroke-width:0.249567">student IF1</tspan></text>
      </g>
      <circle
         style="display:inline;fill:#ffffff;stroke:none;stroke-width:0.216428"
         id="circle11834"
         cx="29.956926"
         cy="87.501862"
         r="12.545443" />
      <g
         id="g11838"
         transform="matrix(0.77801242,0,0,0.77801242,0.616,-20.112723)"
         style="display:inline">
        <path
           style="fill:#14cb9b;stroke-width:0.0846667"
           d="m 36.393321,152.42879 c -1.766744,-0.17682 -3.482888,-0.68823 -5.138058,-1.53114 l -0.989392,-0.50386 -0.478561,0.13912 c -0.839354,0.24401 -1.639458,-0.0794 -2.074976,-0.83876 -0.636964,-1.11058 0.0085,-2.49029 1.272654,-2.72048 1.043106,-0.18993 2.116667,0.73728 2.116667,1.82812 v 0.39886 l 0.839028,0.43098 c 2.02458,1.03995 4.347438,1.51258 6.657418,1.35458 6.290223,-0.43025 11.294453,-5.56933 11.612535,-11.92545 0.04551,-0.90946 -0.0734,-2.51786 -0.212937,-2.88012 -0.05263,-0.13664 -0.326064,-0.0797 -3.105711,0.64664 -1.6764,0.43806 -3.14325,0.86573 -3.259666,0.95039 -0.129207,0.094 -0.228159,0.26582 -0.254,0.44114 -0.02328,0.15796 -0.01749,1.98266 0.01288,4.05487 0.03105,2.11875 0.02238,3.89913 -0.01982,4.06804 -0.225392,0.90229 -1.475482,1.11661 -2.014496,0.34536 -0.08548,-0.12232 -1.823142,-3.3085 -3.86146,-7.0804 -2.038317,-3.7719 -3.779281,-6.9723 -3.868809,-7.112 -0.161859,-0.25256 -0.162634,-0.2344 -0.137372,3.21734 0.02339,3.19592 0.01329,3.4982 -0.127253,3.81 -0.201185,0.44632 -0.523138,0.77612 -0.990562,1.0147 -0.426361,0.21763 -7.106663,1.99096 -7.500112,1.99096 -0.532065,0 -0.654537,-0.21568 -0.937477,-1.651 -0.215307,-1.09222 -0.214569,-3.6632 0.0014,-4.826 0.464637,-2.50181 1.639238,-4.92979 3.307782,-6.83739 3.39696,-3.88365 8.85695,-5.57134 13.902137,-4.29716 1.12251,0.2835 2.424778,0.79183 3.32392,1.29747 0.603037,0.33912 0.667265,0.35749 0.901118,0.25777 0.393713,-0.1679 1.179802,-0.14176 1.559317,0.0519 0.572993,0.29232 1.021784,1.00528 1.020344,1.62094 -0.0022,0.93446 -0.917913,1.85019 -1.852371,1.85237 -0.586842,0.001 -1.322516,-0.44208 -1.591992,-0.95964 -0.07662,-0.14715 -0.161546,-0.49615 -0.188733,-0.77555 l -0.04943,-0.508 -0.846667,-0.44031 c -0.94825,-0.49314 -2.327463,-0.96386 -3.471333,-1.18475 -1.067803,-0.2062 -3.440551,-0.20395 -4.484262,0.004 -4.617341,0.92106 -8.17367,4.03388 -9.65013,8.44667 -0.449678,1.34399 -0.590009,2.26782 -0.590057,3.88448 -3.5e-5,1.18256 0.109357,2.30413 0.237204,2.43198 0.06232,0.0623 6.144305,-1.56369 6.347946,-1.69712 0.110689,-0.0725 0.219649,-0.2281 0.242134,-0.34573 0.02248,-0.11763 0.01336,-1.95586 -0.02029,-4.08497 -0.03844,-2.43268 -0.03072,-3.98139 0.02078,-4.16791 0.232266,-0.8412 1.286506,-1.07415 1.886697,-0.41689 0.14045,0.1538 1.964574,3.44194 4.05361,7.30698 2.089036,3.86503 3.834641,7.06543 3.879123,7.112 0.05143,0.0538 0.07063,-1.16373 0.05272,-3.34434 l -0.02815,-3.429 0.23922,-0.48716 c 0.270168,-0.55018 0.686445,-0.88629 1.369447,-1.1057 0.232833,-0.0748 1.907822,-0.52303 3.722199,-0.99607 2.494866,-0.65045 3.349108,-0.84216 3.505018,-0.78657 0.337005,0.12016 0.502561,0.44659 0.702846,1.38584 0.162075,0.76006 0.18957,1.14687 0.18957,2.667 0,1.52651 -0.02703,1.90374 -0.191107,2.667 -0.40856,1.90055 -1.111458,3.57023 -2.192041,5.207 -0.758087,1.14828 -2.537272,2.92669 -3.704485,3.70287 -2.668673,1.77462 -6.087719,2.65178 -9.144001,2.3459 z m -6.700084,-3.13392 c 0.172073,-0.13535 0.223084,-0.25011 0.223084,-0.50185 0,-0.5965 -0.611976,-0.87109 -1.067723,-0.47907 -0.1647,0.14167 -0.230499,0.27843 -0.230499,0.47907 0,0.20064 0.0658,0.33739 0.230499,0.47906 0.284588,0.24479 0.553194,0.25204 0.844639,0.0228 z m 16.863933,-20.691 c 0.392815,-0.39282 0.194183,-1.00707 -0.36029,-1.11417 -0.228942,-0.0442 -0.3139,-0.0104 -0.539071,0.2148 -0.225171,0.22517 -0.259024,0.31013 -0.214804,0.53908 0.107096,0.55447 0.72135,0.7531 1.114165,0.36029 z"
           id="path11836" />
      </g>
      <text
         xml:space="preserve"
         style="font-style:normal;font-variant:normal;font-weight:bold;font-stretch:normal;font-size:1.494px;font-family:Tahoma;-inkscape-font-specification:'Tahoma, Bold';font-variant-ligatures:normal;font-variant-caps:normal;font-variant-numeric:normal;font-variant-east-asian:normal;display:inline;fill:#ff00ff;stroke:none;stroke-width:0.0861918"
         x="47.120514"
         y="85.268822"
         id="text11846"
         inkscape:label="text8602"><tspan
           sodipodi:role="line"
           style="font-style:normal;font-variant:normal;font-weight:bold;font-stretch:normal;font-size:1.41111px;font-family:Tahoma;-inkscape-font-specification:'Tahoma, Bold';font-variant-ligatures:normal;font-variant-caps:normal;font-variant-numeric:normal;font-variant-east-asian:normal;fill:#000000;stroke-width:0.0861918"
           x="47.120514"
           y="85.268822"
           id="tspan11840">Koterovská 85</tspan><tspan
           sodipodi:role="line"
           style="font-style:normal;font-variant:normal;font-weight:bold;font-stretch:normal;font-size:1.41111px;font-family:Tahoma;-inkscape-font-specification:'Tahoma, Bold';font-variant-ligatures:normal;font-variant-caps:normal;font-variant-numeric:normal;font-variant-east-asian:normal;fill:#000000;stroke-width:0.0861918"
           x="47.120514"
           y="87.136322"
           id="tspan11842">326 00 Plzeň</tspan><tspan
           sodipodi:role="line"
           style="font-style:normal;font-variant:normal;font-weight:bold;font-stretch:normal;font-size:1.41111px;font-family:Tahoma;-inkscape-font-specification:'Tahoma, Bold';font-variant-ligatures:normal;font-variant-caps:normal;font-variant-numeric:normal;font-variant-east-asian:normal;fill:#000000;stroke-width:0.0861918"
           x="47.120514"
           y="89.003822"
           id="tspan11844">www.spseplzen.cz</tspan></text>
      <text
         xml:space="preserve"
         style="font-style:normal;font-variant:normal;font-weight:bold;font-stretch:normal;font-size:1.37684px;font-family:Tahoma;-inkscape-font-specification:'Tahoma, Bold';font-variant-ligatures:normal;font-variant-caps:normal;font-variant-numeric:normal;font-variant-east-asian:normal;display:inline;fill:#ff00ff;stroke:none;stroke-width:0.0794329;text-anchor:end;text-align:end"
         x="97.035332"
         y="87.23188"
         id="text11852"
         inkscape:label="text8602"><tspan
           sodipodi:role="line"
           style="font-style:normal;font-variant:normal;font-weight:bold;font-stretch:normal;font-size:1.41111px;font-family:Tahoma;-inkscape-font-specification:'Tahoma, Bold';font-variant-ligatures:normal;font-variant-caps:normal;font-variant-numeric:normal;font-variant-east-asian:normal;fill:#000000;stroke-width:0.0794329;text-anchor:end;text-align:end"
           x="78.965134"
           y="87.23188"
           id="tspan11850">            +420 123 456 789</tspan><tspan
           sodipodi:role="line"
           style="font-style:normal;font-variant:normal;font-weight:bold;font-stretch:normal;font-size:1.41111px;font-family:Tahoma;-inkscape-font-specification:'Tahoma, Bold';font-variant-ligatures:normal;font-variant-caps:normal;font-variant-numeric:normal;font-variant-east-asian:normal;fill:#000000;stroke-width:0.0794329;text-anchor:end;text-align:end"
           x="78.965134"
           y="88.995766"
           id="tspan314">hajzmand@spseplzen.cz</tspan></text>
      <text
         xml:space="preserve"
         style="font-style:normal;font-variant:normal;font-weight:bold;font-stretch:normal;font-size:1.494px;font-family:Tahoma;-inkscape-font-specification:'Tahoma, Bold';font-variant-ligatures:normal;font-variant-caps:normal;font-variant-numeric:normal;font-variant-east-asian:normal;display:inline;fill:#ff00ff;stroke:none;stroke-width:0.0861918"
         x="54.541283"
         y="98.702118"
         id="text1046"
         inkscape:label="text8602"><tspan
           sodipodi:role="line"
           style="font-style:normal;font-variant:normal;font-weight:bold;font-stretch:normal;font-size:1.41111px;font-family:Tahoma;-inkscape-font-specification:'Tahoma, Bold';font-variant-ligatures:normal;font-variant-caps:normal;font-variant-numeric:normal;font-variant-east-asian:normal;fill:#000000;stroke-width:0.0861918"
           x="54.541283"
           y="98.702118"
           id="tspan1044">IČO: 49774301</tspan></text>
      <text
         xml:space="preserve"
         style="font-style:normal;font-variant:normal;font-weight:bold;font-stretch:normal;font-size:1.494px;font-family:Tahoma;-inkscape-font-specification:'Tahoma, Bold';font-variant-ligatures:normal;font-variant-caps:normal;font-variant-numeric:normal;font-variant-east-asian:normal;display:inline;fill:#ff00ff;stroke:none;stroke-width:0.0861918"
         x="78.778351"
         y="98.70211"
         id="text1050"
         inkscape:label="text8602"><tspan
           sodipodi:role="line"
           style="font-style:normal;font-variant:normal;font-weight:bold;font-stretch:normal;font-size:1.41111px;font-family:Tahoma;-inkscape-font-specification:'Tahoma, Bold';font-variant-ligatures:normal;font-variant-caps:normal;font-variant-numeric:normal;font-variant-east-asian:normal;fill:#000000;stroke-width:0.0861918"
           x="78.778351"
           y="98.70211"
           id="tspan1048">DIČ: CZ 49774301</tspan></text>
    </g>
  </g>
</svg>
