<?xml version="1.0" encoding="UTF-8" standalone="no"?>
<!-- Created with Inkscape (http://www.inkscape.org/) -->

<svg
   width="122mm"
   height="102mm"
   viewBox="0 0 122 102"
   version="1.1"
   id="svg5"
   xml:space="preserve"
   inkscape:version="1.2.1 (9c6d41e410, 2022-07-14)"
   sodipodi:docname="twitter.svg"
   inkscape:export-filename="twitter.png"
   inkscape:export-xdpi="96"
   inkscape:export-ydpi="96"
   xmlns:inkscape="http://www.inkscape.org/namespaces/inkscape"
   xmlns:sodipodi="http://sodipodi.sourceforge.net/DTD/sodipodi-0.dtd"
   xmlns="http://www.w3.org/2000/svg"
   xmlns:svg="http://www.w3.org/2000/svg"><sodipodi:namedview
     id="namedview7"
     pagecolor="#ffffff"
     bordercolor="#000000"
     borderopacity="0.25"
     inkscape:showpageshadow="2"
     inkscape:pageopacity="0.0"
     inkscape:pagecheckerboard="0"
     inkscape:deskcolor="#d1d1d1"
     inkscape:document-units="mm"
     showgrid="false"
     inkscape:zoom="1.0544998"
     inkscape:cx="174.49031"
     inkscape:cy="74.917036"
     inkscape:window-width="1920"
     inkscape:window-height="1017"
     inkscape:window-x="-8"
     inkscape:window-y="-8"
     inkscape:window-maximized="1"
     inkscape:current-layer="layer1" /><defs
     id="defs2" /><g
     inkscape:label="Vrstva 1"
     inkscape:groupmode="layer"
     id="layer1"><path
       style="fill:#00abf0;fill-opacity:1;stroke-width:0.264583;stroke:#1a1a1a"
       d="M 99.35484,12.064516 C 80.6699,-6.5737768 56.45026,12.959232 60.32258,33 43.0651,33.303526 26.7749,24.946014 13.12903,9.4032258 7.3287999,22.144037 10.98718,31.749687 20.04839,39.564516 13.73083,39.540176 12.96997,38.000369 9.9354799,37.080645 10.18869,49.499666 17.58347,56.006402 28.00089,60.010789 c -3.41456,0.825169 -6.55423,0.64241 -9.72762,0.5833 4.001,8.220547 10.17387,14.649786 20.75899,16.051072 C 25.251,86.768957 15.66131,86.180948 6.0322599,85.693546 22.88642,101.73137 101.03407,108.57066 105.74194,27.32258 c 5.00869,-3.206931 8.08459,-7.532841 11.59591,-11.606671 -3.88944,1.165013 -8.43941,2.92027 -12.66043,3.090542 3.89249,-3.208474 7.80823,-7.064464 9.47672,-12.0027112 -4.6602,2.038399 -9.42184,4.8959912 -14.7993,5.2607762 z"
       id="path244"
       sodipodi:nodetypes="cccccccccccccc" /></g></svg>
