<?xml version="1.0" encoding="utf-8"?>
<!-- Generator: Adobe Illustrator 15.1.0, SVG Export Plug-In . SVG Version: 6.00 Build 0)  -->
<!DOCTYPE svg PUBLIC "-//W3C//DTD SVG 1.1//EN" "http://www.w3.org/Graphics/SVG/1.1/DTD/svg11.dtd">
<svg version="1.1" id="Vrstva_1" xmlns="http://www.w3.org/2000/svg" xmlns:xlink="http://www.w3.org/1999/xlink" x="0px" y="0px"
	 width="1920px" height="1080px" viewBox="0 0 1920 1080" enable-background="new 0 0 1920 1080" xml:space="preserve">
<rect fill="#D5D5D5" width="1920" height="1080"/>
<g>
	<defs>
		<rect id="SVGID_1_" width="1920" height="1080"/>
	</defs>
	<clipPath id="SVGID_2_">
		<use xlink:href="#SVGID_1_"  overflow="visible"/>
	</clipPath>
	<path clip-path="url(#SVGID_2_)" fill="#1B1B1F" d="M421.669,191.189c-1.224-4.676-6.008-7.475-10.681-6.253l-76.535,20.009
		c-14.336,3.753-21.258,12.607-21.165,27.063c0.038,6.902,0.4,42.877,0.978,71.482c-8.864-16.374-25.145-46.441-40.956-75.64
		c-22.11-40.824-46.233-85.376-47.636-87.984c-3.443-6.4-10.27-9.691-16.603-8.009c-7.571,2.016-10.081,9.444-9.93,15.188
		c0.74,28.566,1.245,76.892,1.296,85.092c0.036,6.416-1.477,8.287-8.096,10.02l-67.807,17.741
		c-6.886-34.578-0.961-70.029,16.999-100.714c19.442-33.22,50.651-56.876,87.881-66.619c37.944-9.929,78.355-3.884,111.721,16.529
		c-0.565,3.022-0.495,6.213,0.333,9.379c2.478,9.466,11.035,16.076,20.809,16.076c1.837,0,3.674-0.237,5.461-0.705
		c5.561-1.453,10.221-4.988,13.125-9.947c2.904-4.966,3.702-10.761,2.247-16.321c-2.475-9.466-11.034-16.077-20.813-16.077
		c-1.832,0-3.668,0.237-5.454,0.704c-2.084,0.544-4.01,1.382-5.761,2.454c-37.572-23.293-83.236-30.243-126.098-19.027
		c-41.756,10.924-76.759,37.456-98.56,74.71c-21.802,37.253-27.79,80.766-16.861,122.523c1.225,4.679,6.007,7.479,10.682,6.252
		l76.526-20.023c14.33-3.747,21.255-12.599,21.171-27.064c-0.044-7.004-0.416-43.176-0.984-71.486
		c8.963,16.562,25.456,47.022,40.958,75.645c22.635,41.798,46.232,85.384,47.635,87.979c3.436,6.404,10.263,9.701,16.595,8.022
		c7.575-2.012,10.087-9.444,9.938-15.195c-0.747-28.686-1.247-77.341-1.291-85.092c-0.041-6.415,1.472-8.289,8.088-10.021
		l67.813-17.728c14.694,74.084-30.866,147.969-104.886,167.338c-38.128,9.974-78.689,3.834-112.14-16.795
		c0.588-3.099,0.488-6.314-0.334-9.454c-2.478-9.468-11.038-16.082-20.817-16.082c-1.833,0-3.669,0.237-5.455,0.704
		c-11.484,3.007-18.384,14.795-15.378,26.274c2.475,9.469,11.034,16.081,20.816,16.081c1.836,0,3.673-0.238,5.457-0.705
		c2.04-0.533,3.959-1.35,5.714-2.411c25.9,16.181,55.657,24.577,85.729,24.575c13.66-0.001,27.388-1.732,40.841-5.252
		c41.757-10.926,76.761-37.461,98.563-74.711C426.605,276.46,432.596,232.947,421.669,191.189 M360.421,105.884
		c0.618-0.164,1.249-0.245,1.876-0.245c3.351,0,6.284,2.267,7.133,5.517c0.5,1.907,0.228,3.896-0.77,5.598
		c-0.995,1.703-2.594,2.913-4.499,3.413c-0.62,0.162-1.256,0.243-1.884,0.243c-3.349,0-6.282-2.268-7.132-5.512
		C354.116,110.958,356.483,106.914,360.421,105.884 M170.379,357.835c-0.62,0.161-1.251,0.244-1.879,0.244
		c-3.353,0-6.287-2.269-7.138-5.519c-1.031-3.939,1.338-7.986,5.281-9.018c0.617-0.161,1.247-0.242,1.874-0.242
		c3.352,0,6.287,2.271,7.139,5.523c0.497,1.905,0.223,3.894-0.774,5.598C173.886,356.124,172.286,357.337,170.379,357.835"/>
	<path clip-path="url(#SVGID_2_)" fill="#FFFFFF" d="M790.669,191.189c-1.224-4.676-6.008-7.475-10.681-6.253l-76.535,20.009
		c-14.336,3.753-21.258,12.607-21.165,27.063c0.038,6.902,0.4,42.877,0.978,71.482c-8.864-16.374-25.145-46.441-40.956-75.64
		c-22.11-40.824-46.233-85.376-47.636-87.984c-3.443-6.4-10.27-9.691-16.603-8.009c-7.571,2.016-10.081,9.444-9.93,15.188
		c0.74,28.566,1.245,76.892,1.296,85.092c0.036,6.416-1.477,8.287-8.096,10.02l-67.807,17.741
		c-6.886-34.578-0.961-70.029,16.999-100.714c19.442-33.22,50.651-56.876,87.881-66.619c37.944-9.929,78.355-3.884,111.721,16.529
		c-0.565,3.022-0.495,6.213,0.333,9.379c2.478,9.466,11.035,16.076,20.809,16.076c1.837,0,3.674-0.237,5.461-0.705
		c5.561-1.453,10.221-4.988,13.125-9.947c2.904-4.966,3.702-10.761,2.247-16.321c-2.475-9.466-11.034-16.077-20.813-16.077
		c-1.832,0-3.668,0.237-5.454,0.704c-2.084,0.544-4.01,1.382-5.761,2.454c-37.572-23.293-83.236-30.243-126.098-19.027
		c-41.756,10.924-76.759,37.456-98.56,74.71c-21.802,37.253-27.79,80.766-16.861,122.523c1.225,4.679,6.007,7.479,10.682,6.252
		l76.526-20.023c14.33-3.747,21.255-12.599,21.171-27.064c-0.044-7.004-0.416-43.176-0.984-71.486
		c8.963,16.562,25.456,47.022,40.958,75.645c22.635,41.798,46.232,85.384,47.635,87.979c3.436,6.404,10.263,9.701,16.595,8.022
		c7.575-2.012,10.087-9.444,9.938-15.195c-0.747-28.686-1.247-77.341-1.291-85.092c-0.041-6.415,1.472-8.289,8.088-10.021
		l67.813-17.728c14.694,74.084-30.866,147.969-104.886,167.338c-38.128,9.974-78.688,3.834-112.14-16.795
		c0.588-3.099,0.488-6.314-0.334-9.454c-2.478-9.468-11.038-16.082-20.817-16.082c-1.833,0-3.669,0.237-5.455,0.704
		c-11.484,3.007-18.384,14.795-15.378,26.274c2.475,9.469,11.034,16.081,20.816,16.081c1.836,0,3.673-0.238,5.457-0.705
		c2.04-0.533,3.959-1.35,5.714-2.411c25.9,16.181,55.657,24.577,85.729,24.575c13.66-0.001,27.388-1.732,40.841-5.252
		c41.757-10.926,76.761-37.461,98.563-74.711C795.605,276.46,801.596,232.947,790.669,191.189 M729.421,105.884
		c0.618-0.164,1.249-0.245,1.876-0.245c3.351,0,6.284,2.267,7.133,5.517c0.5,1.907,0.228,3.896-0.77,5.598
		c-0.995,1.703-2.594,2.913-4.499,3.413c-0.62,0.162-1.256,0.243-1.884,0.243c-3.349,0-6.282-2.268-7.132-5.512
		C723.116,110.958,725.483,106.914,729.421,105.884 M539.379,357.835c-0.62,0.161-1.251,0.244-1.879,0.244
		c-3.353,0-6.287-2.269-7.138-5.519c-1.031-3.939,1.338-7.986,5.281-9.018c0.617-0.161,1.247-0.242,1.874-0.242
		c3.353,0,6.287,2.271,7.139,5.523c0.497,1.905,0.223,3.894-0.774,5.598C542.886,356.124,541.286,357.337,539.379,357.835"/>
	<path clip-path="url(#SVGID_2_)" fill="#15CC9C" d="M1163.669,191.189c-1.224-4.676-6.008-7.475-10.681-6.253l-76.536,20.009
		c-14.336,3.753-21.259,12.607-21.165,27.063c0.039,6.902,0.4,42.877,0.979,71.482c-8.863-16.374-25.146-46.441-40.956-75.64
		c-22.109-40.824-46.232-85.376-47.636-87.984c-3.442-6.4-10.27-9.691-16.603-8.009c-7.571,2.016-10.081,9.444-9.93,15.188
		c0.74,28.566,1.245,76.892,1.296,85.092c0.036,6.416-1.477,8.287-8.096,10.02l-67.807,17.741
		c-6.886-34.578-0.961-70.029,16.999-100.714c19.442-33.22,50.651-56.876,87.881-66.619c37.943-9.929,78.354-3.884,111.721,16.529
		c-0.566,3.022-0.495,6.213,0.333,9.379c2.478,9.466,11.035,16.076,20.81,16.076c1.836,0,3.674-0.237,5.461-0.705
		c5.562-1.453,10.221-4.988,13.125-9.947c2.904-4.966,3.701-10.761,2.246-16.321c-2.475-9.466-11.033-16.077-20.813-16.077
		c-1.831,0-3.667,0.237-5.454,0.704c-2.084,0.544-4.011,1.382-5.761,2.454c-37.572-23.293-83.236-30.243-126.098-19.027
		c-41.756,10.924-76.76,37.456-98.561,74.71c-21.802,37.253-27.79,80.766-16.861,122.523c1.225,4.679,6.007,7.479,10.682,6.252
		l76.526-20.023c14.33-3.747,21.254-12.599,21.171-27.064c-0.044-7.004-0.416-43.176-0.984-71.486
		c8.963,16.562,25.456,47.022,40.958,75.645c22.635,41.798,46.231,85.384,47.635,87.979c3.436,6.404,10.264,9.701,16.595,8.022
		c7.575-2.012,10.087-9.444,9.938-15.195c-0.747-28.686-1.247-77.341-1.292-85.092c-0.04-6.415,1.473-8.289,8.09-10.021
		l67.812-17.728c14.694,74.084-30.865,147.969-104.885,167.338c-38.129,9.974-78.69,3.834-112.141-16.795
		c0.588-3.099,0.488-6.314-0.334-9.454c-2.478-9.468-11.038-16.082-20.817-16.082c-1.833,0-3.669,0.237-5.455,0.704
		c-11.484,3.007-18.384,14.795-15.378,26.274c2.475,9.469,11.034,16.081,20.816,16.081c1.836,0,3.673-0.238,5.457-0.705
		c2.04-0.533,3.959-1.35,5.714-2.411c25.9,16.181,55.657,24.577,85.729,24.575c13.659-0.001,27.387-1.732,40.84-5.252
		c41.758-10.926,76.761-37.461,98.563-74.711C1168.604,276.46,1174.596,232.947,1163.669,191.189 M1102.421,105.884
		c0.618-0.164,1.248-0.245,1.876-0.245c3.351,0,6.283,2.267,7.134,5.517c0.499,1.907,0.227,3.896-0.771,5.598
		c-0.996,1.703-2.595,2.913-4.5,3.413c-0.619,0.162-1.255,0.243-1.883,0.243c-3.35,0-6.282-2.268-7.132-5.512
		C1096.116,110.958,1098.482,106.914,1102.421,105.884 M912.379,357.835c-0.62,0.161-1.251,0.244-1.879,0.244
		c-3.353,0-6.287-2.269-7.138-5.519c-1.031-3.939,1.338-7.986,5.281-9.018c0.617-0.161,1.247-0.242,1.874-0.242
		c3.353,0,6.287,2.271,7.139,5.523c0.497,1.905,0.223,3.894-0.774,5.598C915.886,356.124,914.286,357.337,912.379,357.835"/>
	<path clip-path="url(#SVGID_2_)" fill="#15CC9C" d="M1195.184,624.482c-1.321-5.05-6.488-8.072-11.537-6.754l-82.666,21.613
		c-15.484,4.054-22.959,13.615-22.859,29.231c0.04,7.454,0.433,46.311,1.058,77.208c-9.573-17.687-27.161-50.161-44.238-81.7
		c-23.88-44.093-49.935-92.214-51.45-95.032c-3.718-6.912-11.094-10.467-17.933-8.648c-8.18,2.177-10.889,10.201-10.727,16.404
		c0.801,30.853,1.345,83.051,1.4,91.907c0.04,6.93-1.594,8.951-8.743,10.822l-73.24,19.163
		c-7.438-37.349-1.037-75.639,18.363-108.781c20.998-35.881,54.707-61.431,94.919-71.955c40.982-10.724,84.631-4.195,120.67,17.852
		c-0.61,3.266-0.535,6.71,0.359,10.132c2.678,10.225,11.92,17.361,22.477,17.361c1.983,0,3.968-0.255,5.898-0.759
		c6.005-1.572,11.039-5.388,14.175-10.745c3.138-5.363,3.999-11.622,2.429-17.629c-2.674-10.223-11.919-17.364-22.481-17.364
		c-1.978,0-3.96,0.255-5.892,0.761c-2.25,0.586-4.332,1.492-6.222,2.65c-40.581-25.159-89.905-32.666-136.198-20.552
		c-45.101,11.8-82.908,40.458-106.455,80.697c-23.547,40.236-30.015,87.235-18.211,132.335c1.323,5.054,6.488,8.079,11.538,6.751
		l82.655-21.625c15.478-4.046,22.959-13.606,22.866-29.23c-0.047-7.565-0.449-46.635-1.063-77.213
		c9.682,17.89,27.496,50.789,44.239,81.704c24.446,45.146,49.934,92.223,51.45,95.026c3.711,6.916,11.085,10.478,17.924,8.664
		c8.183-2.173,10.896-10.199,10.734-16.412c-0.806-30.985-1.348-83.535-1.395-91.906c-0.044-6.931,1.59-8.954,8.736-10.824
		l73.246-19.148c15.869,80.016-33.339,159.822-113.288,180.741c-41.184,10.772-84.993,4.14-121.122-18.14
		c0.635-3.348,0.525-6.82-0.361-10.212c-2.678-10.228-11.924-17.369-22.483-17.369c-1.981,0-3.965,0.254-5.896,0.759
		c-12.404,3.248-19.856,15.98-16.609,28.379c2.674,10.229,11.919,17.367,22.483,17.367c1.983,0,3.968-0.255,5.894-0.76
		c2.204-0.575,4.277-1.457,6.173-2.604c27.974,17.478,60.115,26.547,92.594,26.544c14.755-0.001,29.582-1.87,44.113-5.672
		c45.103-11.803,82.91-40.462,106.458-80.696C1200.516,716.585,1206.984,669.588,1195.184,624.482 M1129.03,532.346
		c0.668-0.176,1.348-0.264,2.025-0.264c3.62,0,6.787,2.447,7.707,5.958c0.537,2.06,0.243,4.208-0.835,6.047
		c-1.075,1.838-2.803,3.146-4.859,3.686c-0.669,0.175-1.356,0.262-2.033,0.262c-3.619,0-6.785-2.449-7.703-5.952
		C1122.221,537.826,1124.776,533.457,1129.03,532.346 M923.767,804.478c-0.671,0.174-1.351,0.264-2.031,0.264
		c-3.62,0-6.791-2.452-7.709-5.962c-1.113-4.254,1.445-8.626,5.705-9.74c0.665-0.172,1.345-0.262,2.025-0.262
		c3.62,0,6.788,2.454,7.708,5.966c0.539,2.058,0.242,4.205-0.837,6.046C927.554,802.629,925.827,803.94,923.767,804.478"/>
	<path clip-path="url(#SVGID_2_)" d="M939.026,978.454c3.601-0.706,7.142-1.057,10.624-1.057c5.375,0,9.39,1.067,12.048,3.205
		c2.65,2.133,3.979,5.453,3.979,9.959c0,4.335-1.322,7.613-3.967,9.834c-2.648,2.219-6.625,3.327-11.934,3.327
		c-0.855,0-2.203-0.05-4.043-0.153v11.432h-6.708V978.454z M956.924,996.689c1.482-1.273,2.223-3.298,2.223-6.08
		c0-2.813-0.723-4.869-2.171-6.165c-1.449-1.298-3.698-1.946-6.747-1.946c-1.557,0-3.057,0.117-4.495,0.35v15.498
		c1.136,0.169,2.511,0.254,4.118,0.254C953.084,998.6,955.44,997.963,956.924,996.689"/>
	<polygon clip-path="url(#SVGID_2_)" points="975.572,1015 975.572,977.825 982.281,977.825 982.281,1009.399 999.813,1009.399 
		999.813,1015 	"/>
	<polygon clip-path="url(#SVGID_2_)" points="1016.917,1009.424 1035.531,1009.424 1035.531,1015 1008.227,1015 1008.227,1011.309 
		1026.564,983.399 1008.504,983.399 1008.504,977.825 1035.255,977.825 1035.255,981.516 	"/>
	<polygon clip-path="url(#SVGID_2_)" points="1053.493,1009.601 1072.129,1009.601 1072.129,1015 1046.861,1015 1046.861,977.825 
		1071.879,977.825 1071.879,983.225 1053.493,983.225 1053.493,993.274 1069.366,993.274 1069.366,998.672 1053.493,998.672 	"/>
	<polygon clip-path="url(#SVGID_2_)" points="1108.148,977.825 1114.453,977.825 1114.453,1015 1107.672,1015 1090.015,987.897 
		1090.015,1015 1083.686,1015 1083.686,977.825 1090.465,977.825 1108.148,1004.954 	"/>
	<path clip-path="url(#SVGID_2_)" fill="#1B1B1F" d="M1098.999,969.785c-1.66,0-3.214-0.902-4.052-2.354l-0.26-0.456h-3.885
		c0.174,0.63,0.446,1.251,0.446,1.251c1.286,3.188,4.326,5.242,7.75,5.242c3.426,0,6.468-2.054,7.752-5.242
		c0,0,0.271-0.621,0.446-1.251h-3.885l-0.263,0.456C1102.215,968.883,1100.661,969.785,1098.999,969.785"/>
	<polygon clip-path="url(#SVGID_2_)" points="888.073,891.536 891.936,891.536 874.808,938.39 869.298,938.39 852.17,891.536 
		856.254,891.536 872.179,935.352 	"/>
	<path clip-path="url(#SVGID_2_)" d="M902.683,933.119c-3.302-3.895-4.953-9.945-4.953-18.156c0-8.21,1.66-14.265,4.985-18.156
		c3.324-3.896,7.922-5.843,13.787-5.843c5.911,0,10.518,1.947,13.823,5.843c3.3,3.892,4.953,9.946,4.953,18.156
		c0,8.211-1.661,14.262-4.986,18.156c-3.326,3.895-7.92,5.841-13.79,5.841C910.593,938.96,905.986,937.014,902.683,933.119
		 M927.427,930.759c2.574-3.206,3.862-8.418,3.862-15.637c0-7.367-1.288-12.669-3.862-15.909c-2.575-3.243-6.216-4.859-10.925-4.859
		c-4.704,0-8.346,1.603-10.922,4.811c-2.575,3.21-3.861,8.421-3.861,15.641c0,7.366,1.286,12.67,3.861,15.908
		c2.576,3.242,6.218,4.86,10.922,4.86C921.211,935.573,924.852,933.971,927.427,930.759"/>
	<path clip-path="url(#SVGID_2_)" d="M950.632,938.503c-1.94-0.307-3.789-0.766-5.539-1.377v-3.451
		c3.734,1.266,7.483,1.898,11.239,1.898c4.053,0,7.086-0.79,9.103-2.373c2.015-1.583,3.022-3.915,3.022-6.998
		c0-1.751-0.332-3.208-0.998-4.367c-0.665-1.161-1.707-2.139-3.131-2.93c-1.426-0.793-3.364-1.507-5.814-2.137l-2.277-0.571
		c-3.989-1.034-6.948-2.565-8.882-4.591c-1.93-2.026-2.896-4.697-2.896-8.01c0-2.616,0.602-4.87,1.804-6.759
		c1.203-1.889,2.997-3.341,5.383-4.353c2.386-1.012,5.319-1.521,8.801-1.521c1.753,0,3.499,0.125,5.242,0.367
		c1.74,0.241,3.316,0.595,4.732,1.06v3.417c-3.124-0.971-6.449-1.454-9.975-1.454c-4.03,0-7.047,0.771-9.054,2.308
		c-2.006,1.543-3.007,3.783-3.007,6.715c0,1.707,0.299,3.139,0.903,4.287c0.599,1.152,1.569,2.125,2.91,2.915
		c1.34,0.79,3.162,1.491,5.461,2.104l2.281,0.57c4.286,1.097,7.427,2.661,9.434,4.687c2.005,2.025,3.01,4.708,3.01,8.04
		c0,2.768-0.629,5.118-1.885,7.06c-1.256,1.942-3.088,3.417-5.497,4.418c-2.401,1.001-5.317,1.503-8.734,1.503
		C954.451,938.96,952.576,938.81,950.632,938.503"/>
	<path clip-path="url(#SVGID_2_)" d="M1018.29,904.704c1.814,0.738,3.191,1.975,4.131,3.704c0.938,1.732,1.408,4.065,1.408,6.996
		v22.986h-3.229l-0.285-3.924h-0.317c-1.137,1.413-2.596,2.511-4.368,3.292c-1.771,0.779-3.684,1.172-5.729,1.172
		c-2.09,0-3.9-0.364-5.43-1.095c-1.53-0.727-2.707-1.778-3.532-3.148c-0.822-1.372-1.233-3.021-1.233-4.94
		c0-2.956,0.963-5.244,2.882-6.869c1.918-1.623,4.947-2.659,9.085-3.102l8.422-0.951v-3.548c0-2.172-0.338-3.87-1.013-5.095
		c-0.677-1.226-1.675-2.084-2.993-2.579c-1.318-0.496-3.022-0.745-5.112-0.745c-1.414,0-2.923,0.126-4.528,0.378
		c-1.604,0.255-3.175,0.645-4.718,1.172v-3.293c1.352-0.485,2.887-0.859,4.606-1.121c1.721-0.266,3.396-0.397,5.019-0.397
		C1014.163,903.597,1016.474,903.965,1018.29,904.704 M1015.772,934.655c1.634-0.761,3.074-1.943,4.321-3.545v-9.437l-8.231,0.921
		c-2.893,0.315-4.992,1.021-6.301,2.119c-1.31,1.101-1.962,2.661-1.962,4.685c0,2.091,0.589,3.682,1.773,4.767
		c1.182,1.087,2.945,1.63,5.285,1.63C1012.432,935.795,1014.139,935.415,1015.772,934.655"/>
	<path clip-path="url(#SVGID_2_)" d="M1060.87,938.503c-1.944-0.307-3.788-0.766-5.542-1.377v-3.451
		c3.739,1.266,7.482,1.898,11.239,1.898c4.055,0,7.09-0.79,9.103-2.373c2.018-1.583,3.025-3.915,3.025-6.998
		c0-1.751-0.334-3.208-0.998-4.367c-0.665-1.161-1.709-2.139-3.137-2.93c-1.422-0.793-3.358-1.507-5.806-2.137l-2.28-0.571
		c-3.987-1.034-6.951-2.565-8.88-4.591c-1.935-2.026-2.897-4.697-2.897-8.01c0-2.616,0.601-4.87,1.804-6.759
		s2.997-3.341,5.383-4.353s5.318-1.521,8.802-1.521c1.75,0,3.498,0.125,5.239,0.367c1.741,0.241,3.319,0.595,4.731,1.06v3.417
		c-3.123-0.971-6.444-1.454-9.971-1.454c-4.031,0-7.05,0.771-9.057,2.308c-2.003,1.543-3.006,3.783-3.006,6.715
		c0,1.707,0.303,3.139,0.9,4.287c0.603,1.152,1.574,2.125,2.914,2.915s3.159,1.491,5.461,2.104l2.281,0.57
		c4.282,1.097,7.43,2.661,9.433,4.687c2.006,2.025,3.01,4.708,3.01,8.04c0,2.768-0.63,5.118-1.884,7.06
		c-1.257,1.942-3.089,3.417-5.495,4.418s-5.317,1.503-8.737,1.503C1064.69,938.96,1062.811,938.81,1060.87,938.503"/>
	<path clip-path="url(#SVGID_2_)" d="M1093.922,892.199c3.927-0.758,7.757-1.141,11.494-1.141c6.056,0,10.615,1.284,13.674,3.851
		c3.062,2.563,4.595,6.524,4.595,11.888c0,5.21-1.579,9.147-4.735,11.808c-3.154,2.656-8.025,3.99-14.611,3.99
		c-2.193,0-4.39-0.107-6.584-0.318v16.114h-3.832V892.199z M1116.148,916.263c2.447-2.027,3.672-5.152,3.672-9.373
		c0-4.35-1.166-7.53-3.496-9.546c-2.336-2.014-5.907-3.022-10.72-3.022c-2.553,0-5.171,0.211-7.851,0.633v23.935
		c1.855,0.273,4.084,0.415,6.68,0.415C1109.795,919.304,1113.7,918.287,1116.148,916.263"/>
	<path clip-path="url(#SVGID_2_)" d="M1139.734,938.503c-1.94-0.307-3.789-0.766-5.539-1.377v-3.451
		c3.732,1.266,7.48,1.898,11.239,1.898c4.052,0,7.086-0.79,9.101-2.373c2.016-1.583,3.024-3.915,3.024-6.998
		c0-1.751-0.333-3.208-0.999-4.367c-0.664-1.161-1.71-2.139-3.132-2.93c-1.426-0.793-3.361-1.507-5.812-2.137l-2.28-0.571
		c-3.988-1.034-6.947-2.565-8.878-4.591c-1.932-2.026-2.899-4.697-2.899-8.01c0-2.616,0.603-4.87,1.807-6.759
		s2.997-3.341,5.382-4.353s5.319-1.521,8.803-1.521c1.75,0,3.498,0.125,5.238,0.367c1.741,0.241,3.316,0.595,4.732,1.06v3.417
		c-3.123-0.971-6.448-1.454-9.971-1.454c-4.032,0-7.051,0.771-9.058,2.308c-2.004,1.543-3.007,3.783-3.007,6.715
		c0,1.707,0.3,3.139,0.903,4.287c0.602,1.152,1.572,2.125,2.911,2.915c1.343,0.79,3.162,1.491,5.462,2.104l2.278,0.57
		c4.288,1.097,7.431,2.661,9.438,4.687c2.004,2.025,3.007,4.708,3.007,8.04c0,2.768-0.627,5.118-1.887,7.06
		c-1.252,1.942-3.084,3.417-5.49,4.418c-2.407,1.001-5.317,1.503-8.738,1.503C1143.554,938.96,1141.676,938.81,1139.734,938.503"/>
	<polygon clip-path="url(#SVGID_2_)" points="1176.618,935.004 1201.09,935.004 1201.09,938.391 1172.787,938.391 1172.787,891.536 
		1200.773,891.536 1200.773,894.923 1176.618,894.923 1176.618,912.651 1197.735,912.651 1197.735,916.008 1176.618,916.008 	"/>
	<path clip-path="url(#SVGID_2_)" fill="#1B1B1F" d="M1153.554,880.44l-0.117,0.204c-1.099,1.909-3.142,3.097-5.332,3.097
		s-4.229-1.188-5.331-3.097l-0.116-0.204h-3.259l0.225,0.559c1.404,3.485,4.735,5.739,8.481,5.739s7.078-2.254,8.485-5.739
		l0.222-0.559H1153.554z"/>
	<path clip-path="url(#SVGID_2_)" fill="#1B1B1F" d="M965.266,880.645c-1.101,1.909-3.142,3.097-5.332,3.097
		c-2.189,0-4.233-1.188-5.332-3.097l-0.118-0.204h-3.257l0.225,0.558c1.404,3.486,4.734,5.74,8.482,5.74s7.076-2.254,8.482-5.74
		l0.225-0.558h-3.26L965.266,880.645z"/>
	<path clip-path="url(#SVGID_2_)" fill="#1B1B1F" d="M416.816,625.484c-1.331-5.089-6.538-8.134-11.625-6.806l-83.301,21.779
		c-15.602,4.084-23.136,13.721-23.035,29.456c0.041,7.51,0.436,46.665,1.066,77.8c-9.647-17.821-27.37-50.546-44.578-82.326
		c-24.063-44.432-50.318-92.923-51.845-95.763c-3.746-6.965-11.179-10.546-18.071-8.714c-8.242,2.193-10.972,10.278-10.809,16.529
		c0.807,31.09,1.356,83.688,1.411,92.612c0.04,6.983-1.607,9.02-8.81,10.905l-73.802,19.311
		c-7.496-37.636-1.045-76.22,18.503-109.616c21.16-36.156,55.128-61.902,95.648-72.507c41.298-10.806,85.281-4.227,121.597,17.99
		c-0.616,3.29-0.538,6.76,0.361,10.208c2.698,10.304,12.012,17.495,22.649,17.495c1.999,0,3.998-0.257,5.945-0.765
		c6.05-1.584,11.123-5.43,14.283-10.828c3.162-5.404,4.029-11.712,2.447-17.764c-2.694-10.302-12.01-17.498-22.654-17.498
		c-1.993,0-3.99,0.258-5.936,0.767c-2.268,0.591-4.364,1.504-6.27,2.67c-40.893-25.351-90.594-32.916-137.244-20.709
		c-45.447,11.89-83.544,40.768-107.272,81.316c-23.728,40.545-30.245,87.904-18.351,133.352c1.334,5.092,6.538,8.141,11.627,6.803
		l83.29-21.792c15.596-4.077,23.134-13.711,23.042-29.455c-0.048-7.623-0.453-46.992-1.071-77.805
		c9.756,18.026,27.707,51.178,44.578,82.331c24.635,45.492,50.318,92.931,51.846,95.756c3.739,6.97,11.17,10.559,18.062,8.73
		c8.244-2.19,10.978-10.277,10.816-16.537c-0.812-31.224-1.358-84.178-1.406-92.613c-0.043-6.983,1.603-9.022,8.804-10.907
		l73.809-19.295c15.991,80.63-33.595,161.049-114.158,182.129c-41.5,10.855-85.646,4.171-122.052-18.279
		c0.64-3.373,0.529-6.872-0.364-10.29c-2.698-10.306-12.016-17.503-22.656-17.503c-1.995,0-3.995,0.257-5.939,0.765
		c-12.5,3.273-20.01,16.104-16.737,28.597c2.694,10.309,12.01,17.501,22.656,17.501c1.997,0,3.998-0.257,5.939-0.766
		c2.22-0.579,4.31-1.469,6.22-2.625c28.188,17.612,60.576,26.751,93.305,26.748c14.868-0.001,29.809-1.884,44.452-5.715
		c45.448-11.894,83.546-40.772,107.276-81.317C422.189,718.294,428.708,670.937,416.816,625.484 M350.156,532.64
		c0.673-0.178,1.358-0.267,2.04-0.267c3.648,0,6.839,2.467,7.766,6.004c0.542,2.076,0.246,4.242-0.84,6.094
		c-1.084,1.852-2.825,3.17-4.897,3.713c-0.675,0.177-1.367,0.265-2.05,0.265c-3.647,0-6.836-2.468-7.762-5.999
		C343.294,538.162,345.869,533.759,350.156,532.64 M143.316,806.861c-0.677,0.175-1.362,0.266-2.046,0.266
		c-3.648,0-6.844-2.47-7.769-6.007c-1.121-4.287,1.456-8.693,5.749-9.815c0.67-0.174,1.355-0.264,2.04-0.264
		c3.648,0,6.84,2.473,7.767,6.011c0.544,2.074,0.245,4.238-0.843,6.094C147.131,804.998,145.392,806.32,143.316,806.861"/>
	<path clip-path="url(#SVGID_2_)" fill="#1B1B1F" d="M158.692,982.173c3.629-0.711,7.197-1.064,10.706-1.064
		c5.416,0,9.462,1.076,12.141,3.229c2.67,2.15,4.009,5.495,4.009,10.036c0,4.368-1.332,7.672-3.997,9.909
		c-2.668,2.235-6.676,3.354-12.025,3.354c-0.861,0-2.219-0.051-4.074-0.155V1019h-6.76V982.173z M176.729,1000.549
		c1.493-1.283,2.24-3.323,2.24-6.126c0-2.835-0.729-4.907-2.187-6.213c-1.461-1.308-3.727-1.961-6.8-1.961
		c-1.568,0-3.08,0.118-4.529,0.353v15.616c1.145,0.17,2.53,0.257,4.15,0.257C172.858,1002.475,175.232,1001.832,176.729,1000.549"/>
	<polygon clip-path="url(#SVGID_2_)" fill="#1B1B1F" points="195.52,1019 195.52,981.54 202.28,981.54 202.28,1013.356 
		219.947,1013.356 219.947,1019 	"/>
	<polygon clip-path="url(#SVGID_2_)" fill="#1B1B1F" points="237.182,1013.381 255.939,1013.381 255.939,1019 228.425,1019 
		228.425,1015.28 246.902,987.157 228.704,987.157 228.704,981.54 255.661,981.54 255.661,985.259 	"/>
	<polygon clip-path="url(#SVGID_2_)" fill="#1B1B1F" points="274.039,1013.559 292.817,1013.559 292.817,1019 267.356,1019 
		267.356,981.54 292.565,981.54 292.565,986.98 274.039,986.98 274.039,997.107 290.034,997.107 290.034,1002.546 274.039,1002.546 
			"/>
	<polygon clip-path="url(#SVGID_2_)" fill="#1B1B1F" points="329.113,981.54 335.467,981.54 335.467,1019 328.634,1019 
		310.841,991.689 310.841,1019 304.462,1019 304.462,981.54 311.294,981.54 329.113,1008.877 	"/>
	<path clip-path="url(#SVGID_2_)" fill="#1B1B1F" d="M319.894,973.438c-1.673,0-3.239-0.908-4.083-2.371l-0.261-0.459h-3.915
		c0.175,0.635,0.449,1.26,0.449,1.26c1.296,3.213,4.36,5.283,7.81,5.283c3.453,0,6.518-2.07,7.811-5.283c0,0,0.274-0.625,0.451-1.26
		h-3.915l-0.265,0.459C323.134,972.529,321.569,973.438,319.894,973.438"/>
	<polygon clip-path="url(#SVGID_2_)" fill="#1B1B1F" points="107.348,894.588 111.241,894.588 93.981,941.802 88.43,941.802 
		71.17,894.588 75.285,894.588 91.332,938.74 	"/>
	<path clip-path="url(#SVGID_2_)" fill="#1B1B1F" d="M122.07,936.491c-3.327-3.925-4.99-10.022-4.99-18.296
		s1.672-14.375,5.023-18.296c3.349-3.926,7.984-5.888,13.893-5.888c5.956,0,10.598,1.962,13.929,5.888
		c3.326,3.921,4.991,10.022,4.991,18.296s-1.673,14.371-5.024,18.296c-3.352,3.923-7.981,5.885-13.896,5.885
		C130.041,942.376,125.4,940.414,122.07,936.491 M147.005,934.112c2.593-3.231,3.891-8.483,3.891-15.758
		c0-7.423-1.298-12.766-3.891-16.031c-2.595-3.267-6.264-4.896-11.009-4.896c-4.741,0-8.411,1.615-11.006,4.848
		c-2.595,3.235-3.891,8.485-3.891,15.762c0,7.422,1.296,12.767,3.891,16.029c2.595,3.268,6.265,4.898,11.006,4.898
		C140.741,938.964,144.41,937.349,147.005,934.112"/>
	<path clip-path="url(#SVGID_2_)" fill="#1B1B1F" d="M170.388,941.916c-1.956-0.31-3.818-0.771-5.582-1.388v-3.478
		c3.763,1.275,7.541,1.913,11.326,1.913c4.084,0,7.14-0.797,9.173-2.392c2.029-1.595,3.045-3.945,3.045-7.053
		c0-1.764-0.335-3.231-1.005-4.4c-0.671-1.17-1.721-2.154-3.155-2.951c-1.437-0.8-3.391-1.518-5.86-2.154l-2.294-0.575
		c-4.02-1.042-7.001-2.585-8.95-4.626c-1.945-2.043-2.918-4.733-2.918-8.071c0-2.636,0.606-4.907,1.818-6.811
		c1.212-1.902,3.019-3.366,5.424-4.386s5.36-1.533,8.869-1.533c1.765,0,3.526,0.126,5.282,0.369c1.753,0.243,3.341,0.6,4.768,1.068
		v3.443c-3.148-0.979-6.499-1.466-10.05-1.466c-4.062,0-7.103,0.777-9.124,2.326c-2.021,1.555-3.03,3.812-3.03,6.766
		c0,1.721,0.301,3.163,0.91,4.32c0.603,1.162,1.581,2.142,2.932,2.938c1.351,0.797,3.186,1.503,5.503,2.121l2.298,0.574
		c4.319,1.105,7.485,2.682,9.508,4.723c2.019,2.04,3.032,4.744,3.032,8.103c0,2.788-0.634,5.156-1.899,7.113
		c-1.266,1.958-3.112,3.442-5.54,4.451c-2.419,1.009-5.357,1.515-8.8,1.515C174.237,942.376,172.347,942.225,170.388,941.916"/>
	<path clip-path="url(#SVGID_2_)" fill="#1B1B1F" d="M238.565,907.857c1.828,0.744,3.216,1.99,4.163,3.732
		c0.945,1.746,1.419,4.097,1.419,7.05v23.162h-3.254l-0.287-3.954h-0.321c-1.146,1.425-2.615,2.53-4.401,3.317
		c-1.786,0.786-3.712,1.182-5.773,1.182c-2.106,0-3.93-0.367-5.471-1.104c-1.543-0.732-2.728-1.791-3.559-3.173
		c-0.829-1.383-1.244-3.043-1.244-4.978c0-2.979,0.969-5.283,2.904-6.922c1.933-1.636,4.986-2.68,9.155-3.125l8.487-0.959v-3.575
		c0-2.188-0.341-3.9-1.021-5.134c-0.682-1.235-1.688-2.101-3.016-2.599c-1.328-0.501-3.046-0.752-5.151-0.752
		c-1.425,0-2.946,0.128-4.564,0.382c-1.615,0.257-3.199,0.65-4.754,1.181v-3.318c1.362-0.488,2.91-0.866,4.642-1.129
		c1.734-0.269,3.422-0.401,5.058-0.401C234.406,906.741,236.735,907.112,238.565,907.857 M236.028,938.038
		c1.646-0.766,3.099-1.958,4.355-3.572v-9.509l-8.295,0.929c-2.914,0.317-5.031,1.028-6.349,2.135
		c-1.321,1.108-1.977,2.682-1.977,4.721c0,2.107,0.593,3.71,1.787,4.803c1.19,1.096,2.968,1.643,5.326,1.643
		C232.662,939.187,234.382,938.805,236.028,938.038"/>
	<path clip-path="url(#SVGID_2_)" fill="#1B1B1F" d="M281.472,941.916c-1.959-0.31-3.816-0.771-5.584-1.388v-3.478
		c3.768,1.275,7.54,1.913,11.325,1.913c4.086,0,7.144-0.797,9.173-2.392c2.033-1.595,3.048-3.945,3.048-7.053
		c0-1.764-0.337-3.231-1.005-4.4c-0.671-1.17-1.722-2.154-3.16-2.951c-1.434-0.8-3.386-1.518-5.852-2.154l-2.297-0.575
		c-4.018-1.042-7.004-2.585-8.948-4.626c-1.95-2.043-2.92-4.733-2.92-8.071c0-2.636,0.605-4.907,1.818-6.811
		c1.212-1.902,3.02-3.366,5.424-4.386c2.403-1.02,5.359-1.533,8.871-1.533c1.762,0,3.523,0.126,5.277,0.369
		c1.755,0.243,3.346,0.6,4.768,1.068v3.443c-3.147-0.979-6.494-1.466-10.045-1.466c-4.064,0-7.106,0.777-9.128,2.326
		c-2.019,1.555-3.029,3.812-3.029,6.766c0,1.721,0.305,3.163,0.908,4.32c0.607,1.162,1.585,2.142,2.936,2.938
		c1.35,0.797,3.183,1.503,5.503,2.121l2.298,0.574c4.315,1.105,7.487,2.682,9.506,4.723c2.021,2.04,3.032,4.744,3.032,8.103
		c0,2.788-0.634,5.156-1.898,7.113c-1.267,1.958-3.113,3.442-5.537,4.451c-2.425,1.009-5.359,1.515-8.805,1.515
		C285.323,942.376,283.428,942.225,281.472,941.916"/>
	<path clip-path="url(#SVGID_2_)" fill="#1B1B1F" d="M314.779,895.257c3.955-0.764,7.815-1.149,11.581-1.149
		c6.103,0,10.697,1.294,13.78,3.879c3.084,2.583,4.629,6.575,4.629,11.979c0,5.251-1.591,9.218-4.772,11.898
		c-3.178,2.677-8.087,4.021-14.722,4.021c-2.212,0-4.425-0.108-6.635-0.321v16.237h-3.861V895.257z M337.175,919.505
		c2.465-2.043,3.7-5.192,3.7-9.445c0-4.383-1.176-7.588-3.523-9.619c-2.354-2.029-5.952-3.046-10.802-3.046
		c-2.573,0-5.21,0.212-7.91,0.639v24.118c1.869,0.275,4.114,0.418,6.73,0.418C330.773,922.569,334.708,921.545,337.175,919.505"/>
	<path clip-path="url(#SVGID_2_)" fill="#1B1B1F" d="M360.942,941.916c-1.955-0.31-3.818-0.771-5.582-1.388v-3.478
		c3.762,1.275,7.539,1.913,11.326,1.913c4.083,0,7.14-0.797,9.171-2.392c2.031-1.595,3.047-3.945,3.047-7.053
		c0-1.764-0.336-3.231-1.006-4.4c-0.669-1.17-1.724-2.154-3.157-2.951c-1.436-0.8-3.386-1.518-5.855-2.154l-2.298-0.575
		c-4.019-1.042-7.001-2.585-8.946-4.626c-1.947-2.043-2.922-4.733-2.922-8.071c0-2.636,0.607-4.907,1.821-6.811
		c1.213-1.902,3.02-3.366,5.423-4.386c2.402-1.02,5.36-1.533,8.871-1.533c1.763,0,3.524,0.126,5.277,0.369
		c1.755,0.243,3.342,0.6,4.769,1.068v3.443c-3.147-0.979-6.497-1.466-10.046-1.466c-4.064,0-7.106,0.777-9.128,2.326
		c-2.02,1.555-3.03,3.812-3.03,6.766c0,1.721,0.302,3.163,0.91,4.32c0.606,1.162,1.584,2.142,2.935,2.938
		c1.351,0.797,3.186,1.503,5.503,2.121l2.295,0.574c4.321,1.105,7.488,2.682,9.51,4.723c2.02,2.04,3.03,4.744,3.03,8.103
		c0,2.788-0.632,5.156-1.901,7.113c-1.262,1.958-3.107,3.442-5.533,4.451c-2.425,1.009-5.358,1.515-8.805,1.515
		C364.791,942.376,362.899,942.225,360.942,941.916"/>
	<polygon clip-path="url(#SVGID_2_)" fill="#1B1B1F" points="398.109,938.39 422.769,938.39 422.769,941.802 394.249,941.802 
		394.249,894.588 422.45,894.588 422.45,898.001 398.109,898.001 398.109,915.865 419.389,915.865 419.389,919.248 398.109,919.248 
			"/>
	<path clip-path="url(#SVGID_2_)" fill="#1B1B1F" d="M374.868,883.407l-0.119,0.206c-1.107,1.923-3.165,3.12-5.372,3.12
		c-2.207,0-4.262-1.197-5.372-3.12l-0.117-0.206h-3.284l0.226,0.562c1.415,3.514,4.772,5.784,8.547,5.784
		c3.775,0,7.132-2.271,8.551-5.784l0.222-0.562H374.868z"/>
	<path clip-path="url(#SVGID_2_)" fill="#1B1B1F" d="M185.134,883.613c-1.11,1.923-3.167,3.12-5.373,3.12
		c-2.207,0-4.266-1.197-5.373-3.12l-0.12-0.206h-3.281l0.227,0.563c1.415,3.513,4.77,5.783,8.547,5.783s7.13-2.271,8.547-5.783
		l0.227-0.563h-3.285L185.134,883.613z"/>
	<path clip-path="url(#SVGID_2_)" fill="#FFFFFF" d="M797.816,625.484c-1.331-5.089-6.538-8.134-11.625-6.806l-83.301,21.779
		c-15.602,4.084-23.136,13.721-23.035,29.456c0.041,7.51,0.436,46.665,1.066,77.8c-9.647-17.821-27.37-50.546-44.578-82.326
		c-24.063-44.432-50.318-92.923-51.845-95.763c-3.746-6.965-11.179-10.546-18.071-8.714c-8.242,2.193-10.972,10.278-10.809,16.529
		c0.807,31.09,1.356,83.688,1.411,92.612c0.04,6.983-1.607,9.02-8.81,10.905l-73.802,19.311
		c-7.496-37.636-1.045-76.22,18.503-109.616c21.16-36.156,55.128-61.902,95.648-72.507c41.298-10.806,85.281-4.227,121.597,17.99
		c-0.616,3.29-0.538,6.76,0.361,10.208c2.698,10.304,12.012,17.495,22.649,17.495c1.999,0,3.998-0.257,5.945-0.765
		c6.05-1.584,11.123-5.43,14.283-10.828c3.162-5.404,4.029-11.712,2.447-17.764c-2.694-10.302-12.01-17.498-22.654-17.498
		c-1.993,0-3.99,0.258-5.936,0.767c-2.268,0.591-4.364,1.504-6.27,2.67c-40.893-25.351-90.594-32.916-137.244-20.709
		c-45.447,11.89-83.544,40.768-107.272,81.316c-23.728,40.545-30.245,87.904-18.351,133.352c1.334,5.092,6.538,8.141,11.627,6.803
		l83.29-21.792c15.596-4.077,23.134-13.711,23.042-29.455c-0.048-7.623-0.453-46.992-1.071-77.805
		c9.756,18.026,27.707,51.178,44.578,82.331c24.635,45.492,50.318,92.931,51.846,95.756c3.739,6.97,11.17,10.559,18.062,8.73
		c8.244-2.19,10.978-10.277,10.816-16.537c-0.812-31.224-1.358-84.178-1.406-92.613c-0.043-6.983,1.603-9.022,8.804-10.907
		l73.809-19.295c15.991,80.63-33.595,161.049-114.158,182.129c-41.5,10.855-85.646,4.171-122.052-18.279
		c0.64-3.373,0.529-6.872-0.364-10.29c-2.698-10.306-12.016-17.503-22.656-17.503c-1.995,0-3.995,0.257-5.939,0.765
		c-12.5,3.273-20.01,16.104-16.737,28.597c2.694,10.309,12.01,17.501,22.656,17.501c1.997,0,3.998-0.257,5.939-0.766
		c2.22-0.579,4.31-1.469,6.22-2.625c28.188,17.612,60.576,26.751,93.305,26.748c14.868-0.001,29.809-1.884,44.452-5.715
		c45.448-11.894,83.546-40.772,107.276-81.317C803.189,718.294,809.708,670.937,797.816,625.484 M731.156,532.64
		c0.673-0.178,1.358-0.267,2.04-0.267c3.648,0,6.839,2.467,7.766,6.004c0.542,2.076,0.246,4.242-0.84,6.094
		c-1.084,1.852-2.825,3.17-4.897,3.713c-0.675,0.177-1.367,0.265-2.05,0.265c-3.647,0-6.836-2.468-7.762-5.999
		C724.294,538.162,726.869,533.759,731.156,532.64 M524.316,806.861c-0.677,0.175-1.362,0.266-2.046,0.266
		c-3.648,0-6.844-2.47-7.769-6.007c-1.121-4.287,1.456-8.693,5.749-9.815c0.67-0.174,1.355-0.264,2.04-0.264
		c3.648,0,6.84,2.473,7.767,6.011c0.544,2.074,0.245,4.238-0.843,6.094C528.131,804.998,526.392,806.32,524.316,806.861"/>
	<path clip-path="url(#SVGID_2_)" fill="#FFFFFF" d="M539.692,982.173c3.629-0.711,7.197-1.064,10.706-1.064
		c5.416,0,9.462,1.076,12.141,3.229c2.67,2.15,4.009,5.495,4.009,10.036c0,4.368-1.332,7.672-3.997,9.909
		c-2.668,2.235-6.676,3.354-12.025,3.354c-0.861,0-2.219-0.051-4.074-0.155V1019h-6.76V982.173z M557.729,1000.549
		c1.493-1.283,2.24-3.323,2.24-6.126c0-2.835-0.729-4.907-2.188-6.213c-1.461-1.308-3.727-1.961-6.8-1.961
		c-1.568,0-3.08,0.118-4.529,0.353v15.616c1.145,0.17,2.53,0.257,4.15,0.257C553.858,1002.475,556.232,1001.832,557.729,1000.549"/>
	<polygon clip-path="url(#SVGID_2_)" fill="#FFFFFF" points="576.52,1019 576.52,981.54 583.28,981.54 583.28,1013.356 
		600.947,1013.356 600.947,1019 	"/>
	<polygon clip-path="url(#SVGID_2_)" fill="#FFFFFF" points="618.182,1013.381 636.939,1013.381 636.939,1019 609.425,1019 
		609.425,1015.28 627.902,987.157 609.704,987.157 609.704,981.54 636.661,981.54 636.661,985.259 	"/>
	<polygon clip-path="url(#SVGID_2_)" fill="#FFFFFF" points="655.039,1013.559 673.817,1013.559 673.817,1019 648.356,1019 
		648.356,981.54 673.565,981.54 673.565,986.98 655.039,986.98 655.039,997.107 671.034,997.107 671.034,1002.546 655.039,1002.546 
			"/>
	<polygon clip-path="url(#SVGID_2_)" fill="#FFFFFF" points="710.113,981.54 716.467,981.54 716.467,1019 709.634,1019 
		691.841,991.689 691.841,1019 685.462,1019 685.462,981.54 692.294,981.54 710.113,1008.877 	"/>
	<path clip-path="url(#SVGID_2_)" fill="#FFFFFF" d="M700.894,973.438c-1.673,0-3.239-0.908-4.083-2.371l-0.261-0.459h-3.915
		c0.175,0.635,0.449,1.26,0.449,1.26c1.296,3.213,4.36,5.283,7.81,5.283c3.453,0,6.518-2.07,7.811-5.283c0,0,0.274-0.625,0.451-1.26
		h-3.915l-0.265,0.459C704.134,972.529,702.569,973.438,700.894,973.438"/>
	<polygon clip-path="url(#SVGID_2_)" fill="#FFFFFF" points="488.348,894.588 492.241,894.588 474.981,941.802 469.43,941.802 
		452.17,894.588 456.285,894.588 472.332,938.74 	"/>
	<path clip-path="url(#SVGID_2_)" fill="#FFFFFF" d="M503.07,936.491c-3.327-3.925-4.99-10.022-4.99-18.296
		s1.672-14.375,5.023-18.296c3.349-3.926,7.984-5.888,13.893-5.888c5.956,0,10.598,1.962,13.929,5.888
		c3.326,3.921,4.991,10.022,4.991,18.296s-1.673,14.371-5.024,18.296c-3.352,3.923-7.981,5.885-13.896,5.885
		C511.041,942.376,506.4,940.414,503.07,936.491 M528.005,934.112c2.593-3.231,3.891-8.483,3.891-15.758
		c0-7.423-1.298-12.766-3.891-16.031c-2.595-3.267-6.264-4.896-11.009-4.896c-4.741,0-8.411,1.615-11.006,4.848
		c-2.595,3.235-3.891,8.485-3.891,15.762c0,7.422,1.296,12.767,3.891,16.029c2.595,3.268,6.265,4.898,11.006,4.898
		C521.741,938.964,525.41,937.349,528.005,934.112"/>
	<path clip-path="url(#SVGID_2_)" fill="#FFFFFF" d="M551.388,941.916c-1.956-0.31-3.818-0.771-5.582-1.388v-3.478
		c3.763,1.275,7.541,1.913,11.326,1.913c4.084,0,7.14-0.797,9.173-2.392c2.029-1.595,3.045-3.945,3.045-7.053
		c0-1.764-0.335-3.231-1.005-4.4c-0.671-1.17-1.721-2.154-3.155-2.951c-1.437-0.8-3.391-1.518-5.86-2.154l-2.294-0.575
		c-4.02-1.042-7.001-2.585-8.95-4.626c-1.945-2.043-2.918-4.733-2.918-8.071c0-2.636,0.606-4.907,1.818-6.811
		c1.212-1.902,3.019-3.366,5.424-4.386s5.36-1.533,8.869-1.533c1.765,0,3.526,0.126,5.282,0.369c1.753,0.243,3.341,0.6,4.768,1.068
		v3.443c-3.148-0.979-6.499-1.466-10.05-1.466c-4.062,0-7.103,0.777-9.124,2.326c-2.021,1.555-3.03,3.812-3.03,6.766
		c0,1.721,0.301,3.163,0.91,4.32c0.603,1.162,1.581,2.142,2.932,2.938c1.351,0.797,3.186,1.503,5.503,2.121l2.298,0.574
		c4.319,1.105,7.485,2.682,9.508,4.723c2.019,2.04,3.032,4.744,3.032,8.103c0,2.788-0.634,5.156-1.899,7.113
		c-1.266,1.958-3.112,3.442-5.54,4.451c-2.419,1.009-5.357,1.515-8.8,1.515C555.237,942.376,553.347,942.225,551.388,941.916"/>
	<path clip-path="url(#SVGID_2_)" fill="#FFFFFF" d="M619.565,907.857c1.828,0.744,3.216,1.99,4.163,3.732
		c0.945,1.746,1.419,4.097,1.419,7.05v23.162h-3.254l-0.287-3.954h-0.321c-1.146,1.425-2.615,2.53-4.401,3.317
		c-1.786,0.786-3.712,1.182-5.773,1.182c-2.106,0-3.93-0.367-5.471-1.104c-1.543-0.732-2.728-1.791-3.559-3.173
		c-0.829-1.383-1.244-3.043-1.244-4.978c0-2.979,0.969-5.283,2.904-6.922c1.933-1.636,4.986-2.68,9.155-3.125l8.487-0.959v-3.575
		c0-2.188-0.341-3.9-1.021-5.134c-0.682-1.235-1.688-2.101-3.016-2.599c-1.328-0.501-3.046-0.752-5.151-0.752
		c-1.425,0-2.946,0.128-4.564,0.382c-1.615,0.257-3.199,0.65-4.754,1.181v-3.318c1.362-0.488,2.91-0.866,4.642-1.129
		c1.734-0.269,3.422-0.401,5.058-0.401C615.406,906.741,617.735,907.112,619.565,907.857 M617.028,938.038
		c1.646-0.766,3.099-1.958,4.355-3.572v-9.509l-8.295,0.929c-2.914,0.317-5.031,1.028-6.349,2.135
		c-1.321,1.108-1.977,2.682-1.977,4.721c0,2.107,0.593,3.71,1.787,4.803c1.19,1.096,2.968,1.643,5.326,1.643
		C613.662,939.187,615.382,938.805,617.028,938.038"/>
	<path clip-path="url(#SVGID_2_)" fill="#FFFFFF" d="M662.472,941.916c-1.959-0.31-3.816-0.771-5.584-1.388v-3.478
		c3.768,1.275,7.54,1.913,11.325,1.913c4.086,0,7.144-0.797,9.173-2.392c2.033-1.595,3.048-3.945,3.048-7.053
		c0-1.764-0.337-3.231-1.005-4.4c-0.671-1.17-1.722-2.154-3.16-2.951c-1.434-0.8-3.386-1.518-5.852-2.154l-2.297-0.575
		c-4.018-1.042-7.004-2.585-8.948-4.626c-1.95-2.043-2.92-4.733-2.92-8.071c0-2.636,0.605-4.907,1.818-6.811
		c1.212-1.902,3.02-3.366,5.424-4.386c2.403-1.02,5.359-1.533,8.871-1.533c1.762,0,3.523,0.126,5.277,0.369
		c1.755,0.243,3.346,0.6,4.768,1.068v3.443c-3.147-0.979-6.494-1.466-10.045-1.466c-4.064,0-7.106,0.777-9.128,2.326
		c-2.019,1.555-3.029,3.812-3.029,6.766c0,1.721,0.305,3.163,0.908,4.32c0.607,1.162,1.585,2.142,2.936,2.938
		c1.35,0.797,3.183,1.503,5.503,2.121l2.298,0.574c4.315,1.105,7.487,2.682,9.506,4.723c2.021,2.04,3.032,4.744,3.032,8.103
		c0,2.788-0.634,5.156-1.898,7.113c-1.267,1.958-3.113,3.442-5.537,4.451c-2.425,1.009-5.359,1.515-8.805,1.515
		C666.323,942.376,664.428,942.225,662.472,941.916"/>
	<path clip-path="url(#SVGID_2_)" fill="#FFFFFF" d="M695.779,895.257c3.955-0.764,7.815-1.149,11.581-1.149
		c6.103,0,10.697,1.294,13.78,3.879c3.084,2.583,4.629,6.575,4.629,11.979c0,5.251-1.591,9.218-4.772,11.898
		c-3.178,2.677-8.087,4.021-14.722,4.021c-2.212,0-4.425-0.108-6.635-0.321v16.237h-3.861V895.257z M718.175,919.505
		c2.465-2.043,3.7-5.192,3.7-9.445c0-4.383-1.176-7.588-3.523-9.619c-2.354-2.029-5.952-3.046-10.802-3.046
		c-2.573,0-5.21,0.212-7.91,0.639v24.118c1.869,0.275,4.114,0.418,6.73,0.418C711.773,922.569,715.708,921.545,718.175,919.505"/>
	<path clip-path="url(#SVGID_2_)" fill="#FFFFFF" d="M741.942,941.916c-1.955-0.31-3.818-0.771-5.582-1.388v-3.478
		c3.762,1.275,7.539,1.913,11.326,1.913c4.083,0,7.14-0.797,9.171-2.392c2.031-1.595,3.047-3.945,3.047-7.053
		c0-1.764-0.336-3.231-1.006-4.4c-0.669-1.17-1.724-2.154-3.157-2.951c-1.436-0.8-3.386-1.518-5.855-2.154l-2.298-0.575
		c-4.019-1.042-7.001-2.585-8.946-4.626c-1.947-2.043-2.922-4.733-2.922-8.071c0-2.636,0.607-4.907,1.821-6.811
		c1.213-1.902,3.02-3.366,5.423-4.386c2.402-1.02,5.36-1.533,8.871-1.533c1.763,0,3.524,0.126,5.277,0.369
		c1.755,0.243,3.342,0.6,4.769,1.068v3.443c-3.147-0.979-6.497-1.466-10.046-1.466c-4.064,0-7.106,0.777-9.128,2.326
		c-2.02,1.555-3.03,3.812-3.03,6.766c0,1.721,0.302,3.163,0.91,4.32c0.606,1.162,1.584,2.142,2.935,2.938
		c1.351,0.797,3.186,1.503,5.503,2.121l2.295,0.574c4.321,1.105,7.488,2.682,9.51,4.723c2.02,2.04,3.03,4.744,3.03,8.103
		c0,2.788-0.632,5.156-1.901,7.113c-1.262,1.958-3.107,3.442-5.533,4.451c-2.425,1.009-5.358,1.515-8.805,1.515
		C745.791,942.376,743.899,942.225,741.942,941.916"/>
	<polygon clip-path="url(#SVGID_2_)" fill="#FFFFFF" points="779.109,938.39 803.769,938.39 803.769,941.802 775.249,941.802 
		775.249,894.588 803.45,894.588 803.45,898.001 779.109,898.001 779.109,915.865 800.389,915.865 800.389,919.248 779.109,919.248 
			"/>
	<path clip-path="url(#SVGID_2_)" fill="#FFFFFF" d="M755.868,883.407l-0.119,0.206c-1.107,1.923-3.165,3.12-5.372,3.12
		s-4.262-1.197-5.372-3.12l-0.117-0.206h-3.284l0.226,0.562c1.415,3.514,4.772,5.784,8.547,5.784c3.775,0,7.132-2.271,8.551-5.784
		l0.222-0.562H755.868z"/>
	<path clip-path="url(#SVGID_2_)" fill="#FFFFFF" d="M566.134,883.613c-1.11,1.923-3.167,3.12-5.373,3.12
		c-2.207,0-4.266-1.197-5.373-3.12l-0.12-0.206h-3.281l0.227,0.563c1.415,3.513,4.77,5.783,8.547,5.783s7.13-2.271,8.547-5.783
		l0.227-0.563h-3.285L566.134,883.613z"/>
	<path clip-path="url(#SVGID_2_)" fill="#15CC9C" d="M1483.021,197.336c-0.759-2.917-3.748-4.664-6.663-3.904l-47.818,12.502
		c-8.962,2.347-13.286,7.881-13.231,16.911c0.029,4.312,0.248,26.794,0.607,44.663c-5.529-10.228-15.703-29.011-25.572-47.257
		c-13.821-25.509-28.893-53.348-29.771-54.978c-2.154-3.995-6.417-6.053-10.368-5.002c-4.739,1.254-6.315,5.904-6.209,9.487
		c0.45,17.856,0.791,48.047,0.804,53.161c0.024,4.014-0.927,5.188-5.047,6.263l-42.365,11.08
		c-4.311-21.598-0.599-43.748,10.605-62.92c12.162-20.747,31.648-35.532,54.916-41.623c23.716-6.201,48.954-2.434,69.795,10.325
		c-0.346,1.893-0.303,3.888,0.215,5.864c1.545,5.917,6.912,10.043,13.002,10.043c1.149,0,2.291-0.142,3.414-0.438
		c3.479-0.908,6.384-3.114,8.197-6.214c1.818-3.101,2.305-6.733,1.41-10.198c-1.545-5.911-6.895-10.05-13.008-10.05
		c-1.15,0-2.294,0.149-3.404,0.445c-1.31,0.334-2.515,0.866-3.601,1.532c-23.477-14.552-52.006-18.9-78.787-11.883
		c-26.09,6.818-47.955,23.397-61.586,46.675c-13.62,23.281-17.357,50.469-10.539,76.545c0.772,2.929,3.755,4.684,6.676,3.918
		l47.821-12.515c8.956-2.346,13.279-7.867,13.217-16.911c-0.02-4.378-0.252-26.978-0.605-44.668
		c5.609,10.35,15.912,29.388,25.591,47.269c14.148,26.114,28.886,53.346,29.764,54.964c2.149,4.002,6.41,6.066,10.363,5.016
		c4.732-1.248,6.307-5.899,6.214-9.495c-0.471-17.922-0.783-48.322-0.797-53.16c-0.037-4.014,0.908-5.181,5.042-6.263l42.376-11.08
		c9.172,46.287-19.297,92.45-65.534,104.555c-23.828,6.232-49.169,2.398-70.073-10.493c0.378-1.933,0.304-3.948-0.203-5.905
		c-1.556-5.917-6.897-10.049-13.012-10.049c-1.131,0-2.28,0.135-3.41,0.439c-7.173,1.877-11.484,9.245-9.6,16.411
		c1.551,5.922,6.894,10.048,13.01,10.048c1.135,0,2.297-0.141,3.402-0.437c1.272-0.334,2.469-0.841,3.569-1.507
		c16.2,10.103,34.78,15.354,53.569,15.354c8.523,0,17.109-1.082,25.502-3.28c26.098-6.83,47.969-23.402,61.593-46.688
		C1486.117,250.62,1489.855,223.433,1483.021,197.336 M1444.759,144.045c0.39-0.105,0.777-0.155,1.175-0.155
		c2.093,0,3.927,1.414,4.464,3.441c0.302,1.198,0.137,2.44-0.487,3.501c-0.617,1.069-1.63,1.823-2.811,2.138
		c-0.382,0.093-0.785,0.154-1.18,0.154c-2.093,0-3.928-1.421-4.465-3.446C1440.818,147.219,1442.293,144.688,1444.759,144.045
		 M1326.021,301.461c-0.383,0.104-0.778,0.16-1.166,0.16c-2.097,0-3.947-1.422-4.473-3.453c-0.644-2.465,0.847-4.998,3.304-5.641
		c0.391-0.097,0.772-0.147,1.169-0.147c2.093,0,3.933,1.42,4.451,3.447c0.329,1.193,0.163,2.44-0.469,3.501
		C1328.216,300.398,1327.221,301.145,1326.021,301.461"/>
	<path clip-path="url(#SVGID_2_)" fill="#1B1B1F" d="M1531.26,248.28c3.509-0.68,6.967-1.025,10.344-1.025
		c5.229,0,9.137,1.037,11.719,3.118c2.582,2.07,3.866,5.299,3.866,9.679c0,4.225-1.272,7.413-3.854,9.574
		c-2.569,2.149-6.448,3.224-11.604,3.224c-0.824,0-2.132-0.05-3.936-0.142v11.111h-6.535V248.28z M1548.678,266.019
		c1.434-1.248,2.162-3.212,2.162-5.917c0-2.73-0.699-4.738-2.111-5.993c-1.41-1.266-3.603-1.9-6.561-1.9
		c-1.515,0-2.978,0.117-4.373,0.344v15.072c1.105,0.166,2.453,0.247,4.002,0.247
		C1544.959,267.872,1547.237,267.254,1548.678,266.019"/>
	<polygon clip-path="url(#SVGID_2_)" fill="#1B1B1F" points="1566.817,283.818 1566.817,247.662 1573.334,247.662 1573.334,278.383 
		1590.394,278.383 1590.394,283.818 	"/>
	<polygon clip-path="url(#SVGID_2_)" fill="#1B1B1F" points="1607.014,278.396 1625.13,278.396 1625.13,283.818 1598.576,283.818 
		1598.576,280.229 1616.414,253.084 1598.844,253.084 1598.844,247.662 1624.845,247.662 1624.845,251.256 	"/>
	<polygon clip-path="url(#SVGID_2_)" fill="#1B1B1F" points="1642.604,278.569 1660.719,278.569 1660.719,283.819 1636.154,283.819 
		1636.154,247.661 1660.484,247.661 1660.484,252.923 1642.604,252.923 1642.604,262.694 1658.04,262.694 1658.04,267.945 
		1642.604,267.945 	"/>
	<polygon clip-path="url(#SVGID_2_)" fill="#1B1B1F" points="1695.752,247.661 1701.874,247.661 1701.874,283.818 1695.284,283.818 
		1678.105,257.469 1678.105,283.818 1671.949,283.818 1671.949,247.661 1678.552,247.661 1695.752,274.055 	"/>
	<path clip-path="url(#SVGID_2_)" fill="#1B1B1F" d="M1686.852,239.848c-1.612,0-3.125-0.877-3.946-2.286l-0.252-0.45h-3.776
		c0.175,0.617,0.439,1.223,0.439,1.223c1.249,3.1,4.202,5.089,7.535,5.089c3.33,0,6.295-1.989,7.543-5.089
		c0,0,0.258-0.606,0.432-1.223h-3.781l-0.246,0.45C1689.971,238.971,1688.465,239.848,1686.852,239.848"/>
	<polygon clip-path="url(#SVGID_2_)" fill="#1B1B1F" points="1565.585,168.06 1569.341,168.06 1552.676,213.629 1547.325,213.629 
		1530.669,168.06 1534.636,168.06 1550.124,210.678 	"/>
	<path clip-path="url(#SVGID_2_)" fill="#1B1B1F" d="M1579.803,208.503c-3.212-3.792-4.818-9.673-4.818-17.659
		c0-7.979,1.606-13.872,4.843-17.659c3.231-3.793,7.71-5.682,13.416-5.682c5.751,0,10.216,1.889,13.434,5.682
		c3.218,3.787,4.817,9.68,4.817,17.659c0,7.986-1.623,13.867-4.837,17.659c-3.249,3.785-7.718,5.677-13.414,5.677
		C1587.493,214.18,1583.016,212.288,1579.803,208.503 M1603.855,206.205c2.493-3.113,3.761-8.183,3.761-15.205
		c0-7.167-1.268-12.33-3.761-15.474c-2.496-3.15-6.042-4.724-10.612-4.724c-4.588,0-8.121,1.555-10.63,4.668
		c-2.52,3.132-3.763,8.197-3.763,15.219c0,7.165,1.243,12.316,3.763,15.474c2.509,3.156,6.042,4.724,10.63,4.724
		C1597.813,210.887,1601.359,209.33,1603.855,206.205"/>
	<path clip-path="url(#SVGID_2_)" fill="#1B1B1F" d="M1626.423,213.741c-1.878-0.297-3.687-0.747-5.387-1.347v-3.346
		c3.634,1.234,7.276,1.839,10.927,1.839c3.953,0,6.898-0.766,8.864-2.31c1.95-1.531,2.928-3.805,2.928-6.8
		c0-1.699-0.312-3.119-0.963-4.256c-0.657-1.119-1.657-2.069-3.04-2.841c-1.384-0.778-3.279-1.464-5.664-2.082l-2.199-0.554
		c-3.891-1.008-6.77-2.491-8.654-4.455c-1.862-1.976-2.814-4.571-2.814-7.794c0-2.545,0.588-4.737,1.742-6.572
		c1.185-1.84,2.927-3.249,5.236-4.238c2.338-0.987,5.188-1.481,8.574-1.481c1.697,0,3.409,0.122,5.095,0.359
		c1.705,0.234,3.237,0.572,4.602,1.031v3.323c-3.025-0.947-6.263-1.415-9.696-1.415c-3.928,0-6.85,0.753-8.803,2.249
		c-1.945,1.494-2.928,3.674-2.928,6.528c0,1.66,0.303,3.057,0.877,4.169c0.582,1.117,1.527,2.063,2.837,2.829
		c1.308,0.772,3.087,1.457,5.304,2.052l2.225,0.553c4.163,1.07,7.22,2.583,9.172,4.56c1.952,1.969,2.928,4.583,2.928,7.818
		c0,2.688-0.618,4.979-1.828,6.869c-1.217,1.891-3.009,3.323-5.355,4.298c-2.328,0.977-5.169,1.453-8.479,1.453
		C1630.142,214.18,1628.313,214.038,1626.423,213.741"/>
	<path clip-path="url(#SVGID_2_)" fill="#1B1B1F" d="M1692.233,180.864c1.755,0.722,3.095,1.92,4.002,3.613
		c0.922,1.679,1.378,3.952,1.378,6.793v22.36h-3.15l-0.276-3.817h-0.304c-1.1,1.377-2.526,2.445-4.256,3.2
		c-1.705,0.765-3.57,1.142-5.56,1.142c-2.031,0-3.798-0.353-5.274-1.069c-1.487-0.705-2.623-1.722-3.438-3.05
		c-0.802-1.348-1.193-2.941-1.193-4.806c0-2.879,0.922-5.102,2.799-6.684c1.858-1.581,4.805-2.581,8.837-3.026l8.179-0.927v-3.439
		c0-2.119-0.327-3.768-0.994-4.961c-0.644-1.198-1.606-2.025-2.884-2.507c-1.291-0.481-2.94-0.716-4.986-0.716
		c-1.37,0-2.84,0.118-4.396,0.37c-1.563,0.246-3.087,0.617-4.601,1.137v-3.211c1.312-0.47,2.808-0.83,4.478-1.087
		c1.68-0.261,3.311-0.384,4.887-0.384C1688.207,179.795,1690.46,180.153,1692.233,180.864 M1689.775,209.998
		c1.6-0.741,2.997-1.891,4.2-3.447v-9.177l-7.986,0.888c-2.821,0.315-4.866,1.002-6.139,2.065c-1.291,1.074-1.915,2.593-1.915,4.557
		c0,2.039,0.568,3.583,1.725,4.631c1.147,1.063,2.877,1.594,5.145,1.594C1686.521,211.108,1688.188,210.739,1689.775,209.998"/>
	<path clip-path="url(#SVGID_2_)" fill="#1B1B1F" d="M1733.636,213.741c-1.896-0.297-3.682-0.747-5.379-1.347v-3.346
		c3.625,1.234,7.274,1.839,10.926,1.839c3.939,0,6.888-0.766,8.844-2.31c1.972-1.531,2.952-3.805,2.952-6.8
		c0-1.699-0.333-3.119-0.98-4.256c-0.631-1.119-1.664-2.069-3.047-2.841c-1.377-0.778-3.26-1.464-5.638-2.082l-2.229-0.554
		c-3.868-1.008-6.76-2.491-8.642-4.455c-1.871-1.976-2.816-4.571-2.816-7.794c0-2.545,0.594-4.737,1.771-6.572
		c1.156-1.84,2.903-3.249,5.232-4.238c2.316-0.987,5.17-1.481,8.566-1.481c1.694,0,3.386,0.122,5.073,0.359
		c1.696,0.234,3.233,0.572,4.606,1.031v3.323c-3.032-0.947-6.257-1.415-9.68-1.415c-3.935,0-6.867,0.753-8.827,2.249
		c-1.931,1.494-2.922,3.674-2.922,6.528c0,1.66,0.292,3.057,0.877,4.169c0.595,1.117,1.533,2.063,2.832,2.829
		c1.295,0.772,3.076,1.457,5.322,2.052l2.213,0.553c4.16,1.07,7.226,2.583,9.178,4.56c1.951,1.969,2.914,4.583,2.914,7.818
		c0,2.688-0.61,4.979-1.815,6.869c-1.236,1.891-3.014,3.323-5.355,4.298c-2.329,0.977-5.163,1.453-8.505,1.453
		C1737.341,214.18,1735.531,214.038,1733.636,213.741"/>
	<path clip-path="url(#SVGID_2_)" fill="#1B1B1F" d="M1765.785,168.708c3.816-0.735,7.534-1.107,11.172-1.107
		c5.892,0,10.329,1.249,13.311,3.744c2.966,2.483,4.46,6.343,4.46,11.557c0,5.071-1.525,8.899-4.602,11.48
		c-3.07,2.596-7.813,3.88-14.199,3.88c-2.15,0-4.306-0.098-6.418-0.308v15.676h-3.724V168.708z M1787.397,192.11
		c2.376-1.97,3.568-5.015,3.568-9.11c0-4.23-1.137-7.33-3.392-9.289c-2.266-1.958-5.75-2.947-10.424-2.947
		c-2.49,0-5.027,0.218-7.642,0.625v23.274c1.809,0.27,3.971,0.4,6.485,0.4C1781.213,195.063,1785.011,194.075,1787.397,192.11"/>
	<path clip-path="url(#SVGID_2_)" fill="#1B1B1F" d="M1810.329,213.741c-1.89-0.297-3.675-0.747-5.385-1.347v-3.346
		c3.638,1.234,7.275,1.839,10.926,1.839c3.953,0,6.897-0.766,8.863-2.31c1.963-1.531,2.932-3.805,2.932-6.8
		c0-1.699-0.325-3.119-0.969-4.256c-0.642-1.119-1.673-2.069-3.052-2.841c-1.375-0.778-3.268-1.464-5.639-2.082l-2.218-0.554
		c-3.877-1.008-6.762-2.491-8.634-4.455c-1.878-1.976-2.829-4.571-2.829-7.794c0-2.545,0.587-4.737,1.762-6.572
		c1.173-1.84,2.915-3.249,5.23-4.238c2.317-0.987,5.184-1.481,8.567-1.481c1.704,0,3.385,0.122,5.09,0.359
		c1.692,0.234,3.236,0.572,4.613,1.031v3.323c-3.058-0.947-6.273-1.415-9.703-1.415c-3.923,0-6.844,0.753-8.822,2.249
		c-1.942,1.494-2.914,3.674-2.914,6.528c0,1.66,0.291,3.057,0.878,4.169c0.58,1.117,1.531,2.063,2.842,2.829
		c1.283,0.772,3.063,1.457,5.322,2.052l2.199,0.553c4.165,1.07,7.228,2.583,9.181,4.56c1.942,1.969,2.914,4.583,2.914,7.818
		c0,2.688-0.612,4.979-1.829,6.869c-1.223,1.891-3.001,3.323-5.335,4.298c-2.354,0.977-5.182,1.453-8.506,1.453
		C1814.041,214.18,1812.22,214.038,1810.329,213.741"/>
	<polygon clip-path="url(#SVGID_2_)" fill="#1B1B1F" points="1846.208,210.338 1870,210.338 1870,213.629 1842.479,213.629 
		1842.479,168.06 1869.699,168.06 1869.699,171.358 1846.208,171.358 1846.208,188.603 1866.732,188.603 1866.732,191.863 
		1846.208,191.863 	"/>
	<path clip-path="url(#SVGID_2_)" fill="#1B1B1F" d="M1823.77,157.275l-0.111,0.197c-1.066,1.853-3.063,3.002-5.194,3.002
		c-2.118,0-4.096-1.149-5.169-3.002l-0.118-0.197h-3.157l0.204,0.542c1.384,3.387,4.614,5.571,8.24,5.571
		c3.644,0,6.886-2.184,8.257-5.571l0.223-0.542H1823.77z"/>
	<path clip-path="url(#SVGID_2_)" fill="#1B1B1F" d="M1640.659,157.472c-1.055,1.854-3.057,3.002-5.175,3.002
		c-2.132,0-4.12-1.148-5.208-3.002l-0.103-0.197h-3.17l0.216,0.543c1.378,3.386,4.613,5.571,8.265,5.571
		c3.638,0,6.861-2.185,8.245-5.571l0.204-0.543h-3.149L1640.659,157.472z"/>
	<path clip-path="url(#SVGID_2_)" fill="#1B1B1F" d="M1483.021,492.336c-0.759-2.917-3.748-4.664-6.663-3.904l-47.818,12.502
		c-8.962,2.347-13.286,7.881-13.231,16.911c0.029,4.312,0.248,26.794,0.607,44.663c-5.529-10.229-15.703-29.011-25.572-47.257
		c-13.821-25.509-28.893-53.348-29.771-54.978c-2.154-3.995-6.417-6.053-10.368-5.002c-4.739,1.254-6.315,5.904-6.209,9.487
		c0.45,17.856,0.791,48.047,0.804,53.161c0.024,4.014-0.927,5.188-5.047,6.263l-42.365,11.08
		c-4.311-21.598-0.599-43.748,10.605-62.92c12.162-20.747,31.648-35.532,54.916-41.623c23.716-6.201,48.954-2.434,69.795,10.325
		c-0.346,1.893-0.303,3.888,0.215,5.864c1.545,5.917,6.912,10.043,13.002,10.043c1.149,0,2.291-0.142,3.414-0.438
		c3.479-0.908,6.384-3.114,8.197-6.214c1.818-3.101,2.305-6.733,1.41-10.198c-1.545-5.911-6.895-10.05-13.008-10.05
		c-1.15,0-2.294,0.149-3.404,0.445c-1.31,0.334-2.515,0.866-3.601,1.532c-23.477-14.552-52.006-18.9-78.787-11.883
		c-26.09,6.818-47.955,23.397-61.586,46.675c-13.62,23.281-17.357,50.469-10.539,76.545c0.772,2.929,3.755,4.684,6.676,3.918
		l47.821-12.515c8.956-2.346,13.279-7.867,13.217-16.911c-0.02-4.378-0.252-26.978-0.605-44.668
		c5.609,10.35,15.912,29.388,25.591,47.269c14.148,26.113,28.886,53.346,29.764,54.964c2.149,4.002,6.41,6.066,10.363,5.016
		c4.732-1.248,6.307-5.898,6.214-9.494c-0.471-17.923-0.783-48.322-0.797-53.16c-0.037-4.014,0.908-5.181,5.042-6.263l42.376-11.08
		c9.172,46.287-19.297,92.45-65.534,104.555c-23.828,6.232-49.169,2.397-70.073-10.493c0.378-1.933,0.304-3.948-0.203-5.905
		c-1.556-5.916-6.897-10.049-13.012-10.049c-1.131,0-2.28,0.136-3.41,0.438c-7.173,1.878-11.484,9.246-9.6,16.411
		c1.551,5.923,6.894,10.049,13.01,10.049c1.135,0,2.297-0.142,3.402-0.438c1.272-0.333,2.469-0.842,3.569-1.507
		c16.2,10.103,34.78,15.355,53.569,15.355c8.523,0,17.109-1.084,25.502-3.281c26.098-6.831,47.969-23.402,61.593-46.688
		C1486.117,545.62,1489.855,518.433,1483.021,492.336 M1444.759,439.045c0.39-0.105,0.777-0.155,1.175-0.155
		c2.093,0,3.927,1.414,4.464,3.441c0.302,1.198,0.137,2.44-0.487,3.501c-0.617,1.069-1.63,1.823-2.811,2.138
		c-0.382,0.093-0.785,0.154-1.18,0.154c-2.093,0-3.928-1.421-4.465-3.446C1440.818,442.219,1442.293,439.688,1444.759,439.045
		 M1326.021,596.461c-0.383,0.104-0.778,0.16-1.166,0.16c-2.097,0-3.947-1.422-4.473-3.454c-0.644-2.464,0.847-4.996,3.304-5.64
		c0.391-0.098,0.772-0.147,1.169-0.147c2.093,0,3.933,1.42,4.451,3.447c0.329,1.193,0.163,2.439-0.469,3.501
		C1328.216,595.397,1327.221,596.145,1326.021,596.461"/>
	<path clip-path="url(#SVGID_2_)" fill="#1B1B1F" d="M1531.26,543.279c3.509-0.68,6.967-1.024,10.344-1.024
		c5.229,0,9.137,1.037,11.719,3.118c2.582,2.069,3.866,5.299,3.866,9.679c0,4.225-1.272,7.413-3.854,9.573
		c-2.569,2.15-6.448,3.225-11.604,3.225c-0.824,0-2.132-0.05-3.936-0.142v11.11h-6.535V543.279z M1548.678,561.019
		c1.434-1.248,2.162-3.213,2.162-5.916c0-2.729-0.699-4.739-2.111-5.993c-1.41-1.267-3.603-1.9-6.561-1.9
		c-1.515,0-2.978,0.116-4.373,0.344v15.071c1.105,0.166,2.453,0.248,4.002,0.248
		C1544.959,562.872,1547.237,562.254,1548.678,561.019"/>
	<polygon clip-path="url(#SVGID_2_)" fill="#1B1B1F" points="1566.817,578.818 1566.817,542.661 1573.334,542.661 1573.334,573.384 
		1590.394,573.384 1590.394,578.818 	"/>
	<polygon clip-path="url(#SVGID_2_)" fill="#1B1B1F" points="1607.014,573.396 1625.13,573.396 1625.13,578.818 1598.576,578.818 
		1598.576,575.23 1616.414,548.085 1598.844,548.085 1598.844,542.661 1624.845,542.661 1624.845,546.257 	"/>
	<polygon clip-path="url(#SVGID_2_)" fill="#1B1B1F" points="1642.604,573.568 1660.719,573.568 1660.719,578.818 1636.154,578.818 
		1636.154,542.661 1660.484,542.661 1660.484,547.924 1642.604,547.924 1642.604,557.694 1658.04,557.694 1658.04,562.945 
		1642.604,562.945 	"/>
	<polygon clip-path="url(#SVGID_2_)" fill="#1B1B1F" points="1695.752,542.661 1701.874,542.661 1701.874,578.818 1695.284,578.818 
		1678.105,552.47 1678.105,578.818 1671.949,578.818 1671.949,542.661 1678.552,542.661 1695.752,569.055 	"/>
	<path clip-path="url(#SVGID_2_)" fill="#1B1B1F" d="M1686.852,534.848c-1.612,0-3.125-0.877-3.946-2.286l-0.252-0.45h-3.776
		c0.175,0.617,0.439,1.223,0.439,1.223c1.249,3.1,4.202,5.089,7.535,5.089c3.33,0,6.295-1.989,7.543-5.089
		c0,0,0.258-0.606,0.432-1.223h-3.781l-0.246,0.45C1689.971,533.971,1688.465,534.848,1686.852,534.848"/>
	<polygon clip-path="url(#SVGID_2_)" fill="#1B1B1F" points="1565.585,463.06 1569.341,463.06 1552.676,508.629 1547.325,508.629 
		1530.669,463.06 1534.636,463.06 1550.124,505.678 	"/>
	<path clip-path="url(#SVGID_2_)" fill="#1B1B1F" d="M1579.803,503.503c-3.212-3.792-4.818-9.673-4.818-17.659
		c0-7.979,1.606-13.872,4.843-17.659c3.231-3.793,7.71-5.682,13.416-5.682c5.751,0,10.216,1.889,13.434,5.682
		c3.218,3.787,4.817,9.68,4.817,17.659c0,7.986-1.623,13.867-4.837,17.659c-3.249,3.785-7.718,5.677-13.414,5.677
		C1587.493,509.18,1583.016,507.288,1579.803,503.503 M1603.855,501.205c2.493-3.113,3.761-8.183,3.761-15.205
		c0-7.167-1.268-12.33-3.761-15.474c-2.496-3.15-6.042-4.724-10.612-4.724c-4.588,0-8.121,1.555-10.63,4.668
		c-2.52,3.132-3.763,8.197-3.763,15.219c0,7.165,1.243,12.316,3.763,15.474c2.509,3.156,6.042,4.724,10.63,4.724
		C1597.813,505.887,1601.359,504.33,1603.855,501.205"/>
	<path clip-path="url(#SVGID_2_)" fill="#1B1B1F" d="M1626.423,508.741c-1.878-0.297-3.687-0.747-5.387-1.347v-3.346
		c3.634,1.234,7.276,1.839,10.927,1.839c3.953,0,6.898-0.766,8.864-2.31c1.95-1.531,2.928-3.805,2.928-6.8
		c0-1.699-0.312-3.119-0.963-4.256c-0.657-1.119-1.657-2.069-3.04-2.841c-1.384-0.778-3.279-1.464-5.664-2.082l-2.199-0.554
		c-3.891-1.008-6.77-2.491-8.654-4.455c-1.862-1.976-2.814-4.571-2.814-7.794c0-2.545,0.588-4.737,1.742-6.572
		c1.185-1.84,2.927-3.249,5.236-4.238c2.338-0.987,5.188-1.481,8.574-1.481c1.697,0,3.409,0.122,5.095,0.359
		c1.705,0.234,3.237,0.572,4.602,1.031v3.323c-3.025-0.947-6.263-1.415-9.696-1.415c-3.928,0-6.85,0.753-8.803,2.249
		c-1.945,1.494-2.928,3.674-2.928,6.528c0,1.66,0.303,3.057,0.877,4.169c0.582,1.117,1.527,2.063,2.837,2.829
		c1.308,0.772,3.087,1.457,5.304,2.052l2.225,0.553c4.163,1.07,7.22,2.583,9.172,4.56c1.952,1.969,2.928,4.583,2.928,7.818
		c0,2.688-0.618,4.979-1.828,6.869c-1.217,1.891-3.009,3.323-5.355,4.298c-2.328,0.977-5.169,1.453-8.479,1.453
		C1630.142,509.18,1628.313,509.038,1626.423,508.741"/>
	<path clip-path="url(#SVGID_2_)" fill="#1B1B1F" d="M1692.233,475.864c1.755,0.722,3.095,1.92,4.002,3.613
		c0.922,1.679,1.378,3.952,1.378,6.793v22.36h-3.15l-0.276-3.817h-0.304c-1.1,1.377-2.526,2.445-4.256,3.2
		c-1.705,0.765-3.57,1.142-5.56,1.142c-2.031,0-3.798-0.353-5.274-1.069c-1.487-0.705-2.623-1.722-3.438-3.05
		c-0.802-1.348-1.193-2.941-1.193-4.806c0-2.879,0.922-5.102,2.799-6.684c1.858-1.581,4.805-2.581,8.837-3.026l8.179-0.927v-3.439
		c0-2.119-0.327-3.768-0.994-4.961c-0.644-1.198-1.606-2.025-2.884-2.507c-1.291-0.481-2.94-0.716-4.986-0.716
		c-1.37,0-2.84,0.118-4.396,0.37c-1.563,0.246-3.087,0.617-4.601,1.137v-3.211c1.312-0.47,2.808-0.83,4.478-1.087
		c1.68-0.261,3.311-0.384,4.887-0.384C1688.207,474.795,1690.46,475.153,1692.233,475.864 M1689.775,504.998
		c1.6-0.741,2.997-1.891,4.2-3.447v-9.177l-7.986,0.888c-2.821,0.315-4.866,1.002-6.139,2.065c-1.291,1.074-1.915,2.593-1.915,4.557
		c0,2.039,0.568,3.583,1.725,4.631c1.147,1.063,2.877,1.594,5.145,1.594C1686.521,506.108,1688.188,505.739,1689.775,504.998"/>
	<path clip-path="url(#SVGID_2_)" fill="#1B1B1F" d="M1733.636,508.741c-1.896-0.297-3.682-0.747-5.379-1.347v-3.346
		c3.625,1.234,7.274,1.839,10.926,1.839c3.939,0,6.888-0.766,8.844-2.31c1.972-1.531,2.952-3.805,2.952-6.8
		c0-1.699-0.333-3.119-0.98-4.256c-0.631-1.119-1.664-2.069-3.047-2.841c-1.377-0.778-3.26-1.464-5.638-2.082l-2.229-0.554
		c-3.868-1.008-6.76-2.491-8.642-4.455c-1.871-1.976-2.816-4.571-2.816-7.794c0-2.545,0.594-4.737,1.771-6.572
		c1.156-1.84,2.903-3.249,5.232-4.238c2.316-0.987,5.17-1.481,8.566-1.481c1.694,0,3.386,0.122,5.073,0.359
		c1.696,0.234,3.233,0.572,4.606,1.031v3.323c-3.032-0.947-6.257-1.415-9.68-1.415c-3.935,0-6.867,0.753-8.827,2.249
		c-1.931,1.494-2.922,3.674-2.922,6.528c0,1.66,0.292,3.057,0.877,4.169c0.595,1.117,1.533,2.063,2.832,2.829
		c1.295,0.772,3.076,1.457,5.322,2.052l2.213,0.553c4.16,1.07,7.226,2.583,9.178,4.56c1.951,1.969,2.914,4.583,2.914,7.818
		c0,2.688-0.61,4.979-1.815,6.869c-1.236,1.891-3.014,3.323-5.355,4.298c-2.329,0.977-5.163,1.453-8.505,1.453
		C1737.341,509.18,1735.531,509.038,1733.636,508.741"/>
	<path clip-path="url(#SVGID_2_)" fill="#1B1B1F" d="M1765.785,463.708c3.816-0.735,7.534-1.107,11.172-1.107
		c5.892,0,10.329,1.249,13.311,3.744c2.966,2.483,4.46,6.343,4.46,11.557c0,5.071-1.525,8.899-4.602,11.48
		c-3.07,2.596-7.813,3.88-14.199,3.88c-2.15,0-4.306-0.098-6.418-0.308v15.676h-3.724V463.708z M1787.397,487.11
		c2.376-1.97,3.568-5.015,3.568-9.11c0-4.23-1.137-7.33-3.392-9.289c-2.266-1.958-5.75-2.947-10.424-2.947
		c-2.49,0-5.027,0.218-7.642,0.625v23.274c1.809,0.27,3.971,0.4,6.485,0.4C1781.213,490.063,1785.011,489.075,1787.397,487.11"/>
	<path clip-path="url(#SVGID_2_)" fill="#1B1B1F" d="M1810.329,508.741c-1.89-0.297-3.675-0.747-5.385-1.347v-3.346
		c3.638,1.234,7.275,1.839,10.926,1.839c3.953,0,6.897-0.766,8.863-2.31c1.963-1.531,2.932-3.805,2.932-6.8
		c0-1.699-0.325-3.119-0.969-4.256c-0.642-1.119-1.673-2.069-3.052-2.841c-1.375-0.778-3.268-1.464-5.639-2.082l-2.218-0.554
		c-3.877-1.008-6.762-2.491-8.634-4.455c-1.878-1.976-2.829-4.571-2.829-7.794c0-2.545,0.587-4.737,1.762-6.572
		c1.173-1.84,2.915-3.249,5.23-4.238c2.317-0.987,5.184-1.481,8.567-1.481c1.704,0,3.385,0.122,5.09,0.359
		c1.692,0.234,3.236,0.572,4.613,1.031v3.323c-3.058-0.947-6.273-1.415-9.703-1.415c-3.923,0-6.844,0.753-8.822,2.249
		c-1.942,1.494-2.914,3.674-2.914,6.528c0,1.66,0.291,3.057,0.878,4.169c0.58,1.117,1.531,2.063,2.842,2.829
		c1.283,0.772,3.063,1.457,5.322,2.052l2.199,0.553c4.165,1.07,7.228,2.583,9.181,4.56c1.942,1.969,2.914,4.583,2.914,7.818
		c0,2.688-0.612,4.979-1.829,6.869c-1.223,1.891-3.001,3.323-5.335,4.298c-2.354,0.977-5.182,1.453-8.506,1.453
		C1814.041,509.18,1812.22,509.038,1810.329,508.741"/>
	<polygon clip-path="url(#SVGID_2_)" fill="#1B1B1F" points="1846.208,505.338 1870,505.338 1870,508.629 1842.479,508.629 
		1842.479,463.06 1869.699,463.06 1869.699,466.358 1846.208,466.358 1846.208,483.603 1866.732,483.603 1866.732,486.863 
		1846.208,486.863 	"/>
	<path clip-path="url(#SVGID_2_)" fill="#1B1B1F" d="M1823.77,452.275l-0.111,0.197c-1.066,1.853-3.063,3.002-5.194,3.002
		c-2.118,0-4.096-1.149-5.169-3.002l-0.118-0.197h-3.157l0.204,0.542c1.384,3.387,4.614,5.571,8.24,5.571
		c3.644,0,6.886-2.184,8.257-5.571l0.223-0.542H1823.77z"/>
	<path clip-path="url(#SVGID_2_)" fill="#1B1B1F" d="M1640.659,452.472c-1.055,1.854-3.057,3.002-5.175,3.002
		c-2.132,0-4.12-1.148-5.208-3.002l-0.103-0.197h-3.17l0.216,0.543c1.378,3.386,4.613,5.571,8.265,5.571
		c3.638,0,6.861-2.185,8.245-5.571l0.204-0.543h-3.149L1640.659,452.472z"/>
	<path clip-path="url(#SVGID_2_)" fill="#FFFFFF" d="M1483.021,789.336c-0.759-2.916-3.748-4.663-6.663-3.904l-47.818,12.502
		c-8.962,2.347-13.286,7.881-13.231,16.911c0.029,4.313,0.248,26.794,0.607,44.663c-5.529-10.229-15.703-29.012-25.572-47.257
		c-13.821-25.51-28.893-53.348-29.771-54.978c-2.154-3.995-6.417-6.053-10.368-5.002c-4.739,1.254-6.315,5.903-6.209,9.486
		c0.45,17.856,0.791,48.047,0.804,53.161c0.024,4.014-0.927,5.188-5.047,6.263l-42.365,11.08
		c-4.311-21.599-0.599-43.748,10.605-62.92c12.162-20.747,31.648-35.532,54.916-41.623c23.716-6.201,48.954-2.434,69.795,10.326
		c-0.346,1.892-0.303,3.887,0.215,5.863c1.545,5.917,6.912,10.043,13.002,10.043c1.149,0,2.291-0.143,3.414-0.438
		c3.479-0.908,6.384-3.114,8.197-6.214c1.818-3.102,2.305-6.732,1.41-10.198c-1.545-5.911-6.895-10.05-13.008-10.05
		c-1.15,0-2.294,0.148-3.404,0.445c-1.31,0.334-2.515,0.865-3.601,1.532c-23.477-14.553-52.006-18.899-78.787-11.884
		c-26.09,6.818-47.955,23.396-61.586,46.676c-13.62,23.28-17.357,50.469-10.539,76.545c0.772,2.929,3.755,4.684,6.676,3.918
		l47.821-12.516c8.956-2.346,13.279-7.866,13.217-16.91c-0.02-4.379-0.252-26.979-0.605-44.669
		c5.609,10.351,15.912,29.388,25.591,47.27c14.148,26.113,28.886,53.346,29.764,54.964c2.149,4.002,6.41,6.066,10.363,5.016
		c4.732-1.248,6.307-5.898,6.214-9.494c-0.471-17.923-0.783-48.323-0.797-53.16c-0.037-4.015,0.908-5.182,5.042-6.263l42.376-11.081
		c9.172,46.287-19.297,92.45-65.534,104.556c-23.828,6.232-49.169,2.397-70.073-10.493c0.378-1.933,0.304-3.948-0.203-5.905
		c-1.556-5.916-6.897-10.049-13.012-10.049c-1.131,0-2.28,0.136-3.41,0.438c-7.173,1.878-11.484,9.245-9.6,16.411
		c1.551,5.923,6.894,10.049,13.01,10.049c1.135,0,2.297-0.142,3.402-0.438c1.272-0.333,2.469-0.842,3.569-1.507
		c16.2,10.103,34.78,15.354,53.569,15.354c8.523,0,17.109-1.083,25.502-3.28c26.098-6.831,47.969-23.402,61.593-46.688
		C1486.117,842.62,1489.855,815.433,1483.021,789.336 M1444.759,736.045c0.39-0.105,0.777-0.155,1.175-0.155
		c2.093,0,3.927,1.414,4.464,3.441c0.302,1.198,0.137,2.439-0.487,3.501c-0.617,1.069-1.63,1.823-2.811,2.138
		c-0.382,0.093-0.785,0.153-1.18,0.153c-2.093,0-3.928-1.42-4.465-3.445C1440.818,739.22,1442.293,736.688,1444.759,736.045
		 M1326.021,893.461c-0.383,0.104-0.778,0.16-1.166,0.16c-2.097,0-3.947-1.422-4.473-3.454c-0.644-2.464,0.847-4.996,3.304-5.64
		c0.391-0.098,0.772-0.147,1.169-0.147c2.093,0,3.933,1.42,4.451,3.447c0.329,1.193,0.163,2.439-0.469,3.501
		C1328.216,892.397,1327.221,893.145,1326.021,893.461"/>
	<path clip-path="url(#SVGID_2_)" fill="#FFFFFF" d="M1531.26,840.279c3.509-0.68,6.967-1.024,10.344-1.024
		c5.229,0,9.137,1.037,11.719,3.118c2.582,2.069,3.866,5.299,3.866,9.679c0,4.225-1.272,7.413-3.854,9.573
		c-2.569,2.15-6.448,3.225-11.604,3.225c-0.824,0-2.132-0.05-3.936-0.142v11.11h-6.535V840.279z M1548.678,858.019
		c1.434-1.248,2.162-3.213,2.162-5.916c0-2.729-0.699-4.739-2.111-5.993c-1.41-1.267-3.603-1.9-6.561-1.9
		c-1.515,0-2.978,0.116-4.373,0.344v15.071c1.105,0.166,2.453,0.248,4.002,0.248
		C1544.959,859.872,1547.237,859.254,1548.678,858.019"/>
	<polygon clip-path="url(#SVGID_2_)" fill="#FFFFFF" points="1566.817,875.818 1566.817,839.661 1573.334,839.661 1573.334,870.384 
		1590.394,870.384 1590.394,875.818 	"/>
	<polygon clip-path="url(#SVGID_2_)" fill="#FFFFFF" points="1607.014,870.396 1625.13,870.396 1625.13,875.818 1598.576,875.818 
		1598.576,872.23 1616.414,845.085 1598.844,845.085 1598.844,839.661 1624.845,839.661 1624.845,843.257 	"/>
	<polygon clip-path="url(#SVGID_2_)" fill="#FFFFFF" points="1642.604,870.568 1660.719,870.568 1660.719,875.818 1636.154,875.818 
		1636.154,839.661 1660.484,839.661 1660.484,844.924 1642.604,844.924 1642.604,854.694 1658.04,854.694 1658.04,859.945 
		1642.604,859.945 	"/>
	<polygon clip-path="url(#SVGID_2_)" fill="#FFFFFF" points="1695.752,839.661 1701.874,839.661 1701.874,875.818 1695.284,875.818 
		1678.105,849.47 1678.105,875.818 1671.949,875.818 1671.949,839.661 1678.552,839.661 1695.752,866.055 	"/>
	<path clip-path="url(#SVGID_2_)" fill="#FFFFFF" d="M1686.852,831.848c-1.612,0-3.125-0.877-3.946-2.285l-0.252-0.45h-3.776
		c0.175,0.617,0.439,1.223,0.439,1.223c1.249,3.101,4.202,5.089,7.535,5.089c3.33,0,6.295-1.988,7.543-5.089
		c0,0,0.258-0.605,0.432-1.223h-3.781l-0.246,0.45C1689.971,830.971,1688.465,831.848,1686.852,831.848"/>
	<polygon clip-path="url(#SVGID_2_)" fill="#FFFFFF" points="1565.585,760.06 1569.341,760.06 1552.676,805.629 1547.325,805.629 
		1530.669,760.06 1534.636,760.06 1550.124,802.678 	"/>
	<path clip-path="url(#SVGID_2_)" fill="#FFFFFF" d="M1579.803,800.504c-3.212-3.793-4.818-9.673-4.818-17.66
		c0-7.979,1.606-13.872,4.843-17.658c3.231-3.793,7.71-5.683,13.416-5.683c5.751,0,10.216,1.89,13.434,5.683
		c3.218,3.786,4.817,9.679,4.817,17.658c0,7.987-1.623,13.867-4.837,17.66c-3.249,3.785-7.718,5.676-13.414,5.676
		C1587.493,806.18,1583.016,804.289,1579.803,800.504 M1603.855,798.205c2.493-3.113,3.761-8.183,3.761-15.205
		c0-7.167-1.268-12.33-3.761-15.474c-2.496-3.15-6.042-4.725-10.612-4.725c-4.588,0-8.121,1.556-10.63,4.668
		c-2.52,3.133-3.763,8.198-3.763,15.22c0,7.165,1.243,12.315,3.763,15.474c2.509,3.156,6.042,4.725,10.63,4.725
		C1597.813,802.888,1601.359,801.33,1603.855,798.205"/>
	<path clip-path="url(#SVGID_2_)" fill="#FFFFFF" d="M1626.423,805.741c-1.878-0.298-3.687-0.747-5.387-1.347v-3.348
		c3.634,1.234,7.276,1.841,10.927,1.841c3.953,0,6.898-0.768,8.864-2.312c1.95-1.531,2.928-3.805,2.928-6.799
		c0-1.699-0.312-3.12-0.963-4.257c-0.657-1.118-1.657-2.068-3.04-2.841c-1.384-0.778-3.279-1.464-5.664-2.081l-2.199-0.556
		c-3.891-1.007-6.77-2.49-8.654-4.454c-1.862-1.977-2.814-4.57-2.814-7.795c0-2.545,0.588-4.736,1.742-6.571
		c1.185-1.84,2.927-3.249,5.236-4.237c2.338-0.987,5.188-1.482,8.574-1.482c1.697,0,3.409,0.123,5.095,0.359
		c1.705,0.234,3.237,0.572,4.602,1.031v3.323c-3.025-0.947-6.263-1.415-9.696-1.415c-3.928,0-6.85,0.753-8.803,2.249
		c-1.945,1.494-2.928,3.675-2.928,6.527c0,1.661,0.303,3.057,0.877,4.17c0.582,1.116,1.527,2.063,2.837,2.829
		c1.308,0.771,3.087,1.457,5.304,2.052l2.225,0.554c4.163,1.069,7.22,2.582,9.172,4.56c1.952,1.969,2.928,4.583,2.928,7.817
		c0,2.688-0.618,4.979-1.828,6.87c-1.217,1.891-3.009,3.322-5.355,4.298c-2.328,0.977-5.169,1.452-8.479,1.452
		C1630.142,806.18,1628.313,806.038,1626.423,805.741"/>
	<path clip-path="url(#SVGID_2_)" fill="#FFFFFF" d="M1692.233,772.863c1.755,0.723,3.095,1.921,4.002,3.613
		c0.922,1.679,1.378,3.952,1.378,6.793v22.359h-3.15l-0.276-3.816h-0.304c-1.1,1.377-2.526,2.445-4.256,3.2
		c-1.705,0.766-3.57,1.142-5.56,1.142c-2.031,0-3.798-0.353-5.274-1.069c-1.487-0.704-2.623-1.722-3.438-3.05
		c-0.802-1.348-1.193-2.94-1.193-4.807c0-2.878,0.922-5.101,2.799-6.683c1.858-1.581,4.805-2.581,8.837-3.027l8.179-0.926v-3.439
		c0-2.118-0.327-3.768-0.994-4.961c-0.644-1.198-1.606-2.024-2.884-2.507c-1.291-0.481-2.94-0.716-4.986-0.716
		c-1.37,0-2.84,0.118-4.396,0.369c-1.563,0.247-3.087,0.618-4.601,1.138v-3.212c1.312-0.47,2.808-0.829,4.478-1.086
		c1.68-0.261,3.311-0.385,4.887-0.385C1688.207,771.794,1690.46,772.152,1692.233,772.863 M1689.775,801.998
		c1.6-0.741,2.997-1.891,4.2-3.447v-9.178l-7.986,0.889c-2.821,0.314-4.866,1.001-6.139,2.064c-1.291,1.074-1.915,2.593-1.915,4.557
		c0,2.04,0.568,3.583,1.725,4.632c1.147,1.063,2.877,1.595,5.145,1.595C1686.521,803.109,1688.188,802.738,1689.775,801.998"/>
	<path clip-path="url(#SVGID_2_)" fill="#FFFFFF" d="M1733.636,805.741c-1.896-0.298-3.682-0.747-5.379-1.347v-3.348
		c3.625,1.234,7.274,1.841,10.926,1.841c3.939,0,6.888-0.768,8.844-2.312c1.972-1.531,2.952-3.805,2.952-6.799
		c0-1.699-0.333-3.12-0.98-4.257c-0.631-1.118-1.664-2.068-3.047-2.841c-1.377-0.778-3.26-1.464-5.638-2.081l-2.229-0.556
		c-3.868-1.007-6.76-2.49-8.642-4.454c-1.871-1.977-2.816-4.57-2.816-7.795c0-2.545,0.594-4.736,1.771-6.571
		c1.156-1.84,2.903-3.249,5.232-4.237c2.316-0.987,5.17-1.482,8.566-1.482c1.694,0,3.386,0.123,5.073,0.359
		c1.696,0.234,3.233,0.572,4.606,1.031v3.323c-3.032-0.947-6.257-1.415-9.68-1.415c-3.935,0-6.867,0.753-8.827,2.249
		c-1.931,1.494-2.922,3.675-2.922,6.527c0,1.661,0.292,3.057,0.877,4.17c0.595,1.116,1.533,2.063,2.832,2.829
		c1.295,0.771,3.076,1.457,5.322,2.052l2.213,0.554c4.16,1.069,7.226,2.582,9.178,4.56c1.951,1.969,2.914,4.583,2.914,7.817
		c0,2.688-0.61,4.979-1.815,6.87c-1.236,1.891-3.014,3.322-5.355,4.298c-2.329,0.977-5.163,1.452-8.505,1.452
		C1737.341,806.18,1735.531,806.038,1733.636,805.741"/>
	<path clip-path="url(#SVGID_2_)" fill="#FFFFFF" d="M1765.785,760.708c3.816-0.735,7.534-1.107,11.172-1.107
		c5.892,0,10.329,1.249,13.311,3.745c2.966,2.482,4.46,6.342,4.46,11.556c0,5.071-1.525,8.9-4.602,11.481
		c-3.07,2.596-7.813,3.879-14.199,3.879c-2.15,0-4.306-0.098-6.418-0.309v15.677h-3.724V760.708z M1787.397,784.11
		c2.376-1.97,3.568-5.016,3.568-9.11c0-4.23-1.137-7.329-3.392-9.289c-2.266-1.957-5.75-2.946-10.424-2.946
		c-2.49,0-5.027,0.217-7.642,0.624v23.273c1.809,0.271,3.971,0.4,6.485,0.4C1781.213,787.063,1785.011,786.075,1787.397,784.11"/>
	<path clip-path="url(#SVGID_2_)" fill="#FFFFFF" d="M1810.329,805.741c-1.89-0.298-3.675-0.747-5.385-1.347v-3.348
		c3.638,1.234,7.275,1.841,10.926,1.841c3.953,0,6.897-0.768,8.863-2.312c1.963-1.531,2.932-3.805,2.932-6.799
		c0-1.699-0.325-3.12-0.969-4.257c-0.642-1.118-1.673-2.068-3.052-2.841c-1.375-0.778-3.268-1.464-5.639-2.081l-2.218-0.556
		c-3.877-1.007-6.762-2.49-8.634-4.454c-1.878-1.977-2.829-4.57-2.829-7.795c0-2.545,0.587-4.736,1.762-6.571
		c1.173-1.84,2.915-3.249,5.23-4.237c2.317-0.987,5.184-1.482,8.567-1.482c1.704,0,3.385,0.123,5.09,0.359
		c1.692,0.234,3.236,0.572,4.613,1.031v3.323c-3.058-0.947-6.273-1.415-9.703-1.415c-3.923,0-6.844,0.753-8.822,2.249
		c-1.942,1.494-2.914,3.675-2.914,6.527c0,1.661,0.291,3.057,0.878,4.17c0.58,1.116,1.531,2.063,2.842,2.829
		c1.283,0.771,3.063,1.457,5.322,2.052l2.199,0.554c4.165,1.069,7.228,2.582,9.181,4.56c1.942,1.969,2.914,4.583,2.914,7.817
		c0,2.688-0.612,4.979-1.829,6.87c-1.223,1.891-3.001,3.322-5.335,4.298c-2.354,0.977-5.182,1.452-8.506,1.452
		C1814.041,806.18,1812.22,806.038,1810.329,805.741"/>
	<polygon clip-path="url(#SVGID_2_)" fill="#FFFFFF" points="1846.208,802.339 1870,802.339 1870,805.629 1842.479,805.629 
		1842.479,760.06 1869.699,760.06 1869.699,763.357 1846.208,763.357 1846.208,780.603 1866.732,780.603 1866.732,783.863 
		1846.208,783.863 	"/>
	<path clip-path="url(#SVGID_2_)" fill="#FFFFFF" d="M1823.77,749.275l-0.111,0.196c-1.066,1.854-3.063,3.003-5.194,3.003
		c-2.118,0-4.096-1.148-5.169-3.003l-0.118-0.196h-3.157l0.204,0.543c1.384,3.386,4.614,5.57,8.24,5.57
		c3.644,0,6.886-2.185,8.257-5.57l0.223-0.543H1823.77z"/>
	<path clip-path="url(#SVGID_2_)" fill="#FFFFFF" d="M1640.659,749.472c-1.055,1.854-3.057,3.003-5.175,3.003
		c-2.132,0-4.12-1.148-5.208-3.003l-0.103-0.196h-3.17l0.216,0.543c1.378,3.386,4.613,5.57,8.265,5.57
		c3.638,0,6.861-2.185,8.245-5.57l0.204-0.543h-3.149L1640.659,749.472z"/>
</g>
</svg>
